<svg width="100" height="48" viewBox="0 0 100 48" fill="none" xmlns="http://www.w3.org/2000/svg">
<path d="M0 9.63211L7.65306 0L15.3061 9.63211V31.3043H0V9.63211Z" fill="#016FD6"/>
<rect y="14.6086" width="100" height="33.3913" rx="16.6957" fill="#016FD6"/>
<path d="M14.3049 37.2723C13.4836 37.2723 12.7476 37.139 12.0969 36.8723C11.4462 36.6056 10.9236 36.211 10.5289 35.6883C10.1449 35.1656 9.94223 34.5363 9.9209 33.8003H12.8329C12.8756 34.2163 13.0196 34.5363 13.2649 34.7603C13.5102 34.9736 13.8302 35.0803 14.2249 35.0803C14.6302 35.0803 14.9502 34.9896 15.1849 34.8083C15.4196 34.6163 15.5369 34.355 15.5369 34.0243C15.5369 33.747 15.4409 33.5176 15.2489 33.3363C15.0676 33.155 14.8382 33.0056 14.5609 32.8883C14.2942 32.771 13.9102 32.6376 13.4089 32.4883C12.6836 32.2643 12.0916 32.0403 11.6329 31.8163C11.1742 31.5923 10.7796 31.2616 10.4489 30.8243C10.1182 30.387 9.9529 29.8163 9.9529 29.1123C9.9529 28.067 10.3316 27.251 11.0889 26.6643C11.8462 26.067 12.8329 25.7683 14.0489 25.7683C15.2862 25.7683 16.2836 26.067 17.0409 26.6643C17.7982 27.251 18.2036 28.0723 18.2569 29.1283H15.2969C15.2756 28.7656 15.1422 28.483 14.8969 28.2803C14.6516 28.067 14.3369 27.9603 13.9529 27.9603C13.6222 27.9603 13.3556 28.051 13.1529 28.2323C12.9502 28.403 12.8489 28.6536 12.8489 28.9843C12.8489 29.347 13.0196 29.6296 13.3609 29.8323C13.7022 30.035 14.2356 30.2536 14.9609 30.4883C15.6862 30.7336 16.2729 30.9683 16.7209 31.1923C17.1796 31.4163 17.5742 31.7416 17.9049 32.1683C18.2356 32.595 18.4009 33.1443 18.4009 33.8163C18.4009 34.4563 18.2356 35.0376 17.9049 35.5603C17.5849 36.083 17.1156 36.499 16.4969 36.8083C15.8782 37.1176 15.1476 37.2723 14.3049 37.2723Z" fill="white"/>
<path d="M25.0606 34.8403V37.1603H23.6686C22.6766 37.1603 21.9033 36.9203 21.3486 36.4403C20.794 35.9496 20.5166 35.155 20.5166 34.0563V30.5043H19.4286V28.2323H20.5166V26.0563H23.2526V28.2323H25.0446V30.5043H23.2526V34.0883C23.2526 34.355 23.3166 34.547 23.4446 34.6643C23.5726 34.7816 23.786 34.8403 24.0846 34.8403H25.0606Z" fill="white"/>
<path d="M26.0406 32.6803C26.0406 31.763 26.2113 30.9576 26.5526 30.2643C26.9046 29.571 27.3793 29.0376 27.9766 28.6643C28.574 28.291 29.2406 28.1043 29.9766 28.1043C30.606 28.1043 31.1553 28.2323 31.6246 28.4883C32.1046 28.7443 32.4726 29.0803 32.7286 29.4963V28.2323H35.4646V37.1603H32.7286V35.8963C32.462 36.3123 32.0886 36.6483 31.6086 36.9043C31.1393 37.1603 30.59 37.2883 29.9606 37.2883C29.2353 37.2883 28.574 37.1016 27.9766 36.7283C27.3793 36.3443 26.9046 35.8056 26.5526 35.1123C26.2113 34.4083 26.0406 33.5976 26.0406 32.6803ZM32.7286 32.6963C32.7286 32.0136 32.5366 31.475 32.1526 31.0803C31.7793 30.6856 31.3206 30.4883 30.7766 30.4883C30.2326 30.4883 29.7686 30.6856 29.3846 31.0803C29.0113 31.4643 28.8246 31.9976 28.8246 32.6803C28.8246 33.363 29.0113 33.907 29.3846 34.3123C29.7686 34.707 30.2326 34.9043 30.7766 34.9043C31.3206 34.9043 31.7793 34.707 32.1526 34.3123C32.5366 33.9176 32.7286 33.379 32.7286 32.6963Z" fill="white"/>
<path d="M40.18 29.7203C40.5 29.2296 40.9 28.8456 41.38 28.5683C41.86 28.2803 42.3934 28.1363 42.98 28.1363V31.0323H42.228C41.5454 31.0323 41.0334 31.1816 40.692 31.4803C40.3507 31.7683 40.18 32.2803 40.18 33.0163V37.1603H37.444V28.2323H40.18V29.7203Z" fill="white"/>
<path d="M49.2638 34.8403V37.1603H47.8718C46.8798 37.1603 46.1064 36.9203 45.5518 36.4403C44.9971 35.9496 44.7198 35.155 44.7198 34.0563V30.5043H43.6318V28.2323H44.7198V26.0563H47.4558V28.2323H49.2478V30.5043H47.4558V34.0883C47.4558 34.355 47.5198 34.547 47.6478 34.6643C47.7758 34.7816 47.9891 34.8403 48.2878 34.8403H49.2638Z" fill="white"/>
<path d="M59.6664 28.1363C60.6904 28.1363 61.5117 28.4776 62.1304 29.1603C62.7491 29.8323 63.0584 30.7603 63.0584 31.9443V37.1603H60.3384V32.3123C60.3384 31.715 60.1837 31.251 59.8744 30.9203C59.5651 30.5896 59.1491 30.4243 58.6264 30.4243C58.1037 30.4243 57.6877 30.5896 57.3784 30.9203C57.0691 31.251 56.9144 31.715 56.9144 32.3123V37.1603H54.1784V25.3203H56.9144V29.4323C57.1917 29.0376 57.5704 28.723 58.0504 28.4883C58.5304 28.2536 59.0691 28.1363 59.6664 28.1363Z" fill="white"/>
<path d="M73.3756 32.5523C73.3756 32.8083 73.3596 33.075 73.3276 33.3523H67.1356C67.1783 33.907 67.3543 34.3336 67.6636 34.6323C67.9836 34.9203 68.373 35.0643 68.8316 35.0643C69.5143 35.0643 69.989 34.7763 70.2556 34.2003H73.1676C73.0183 34.787 72.7463 35.315 72.3517 35.7843C71.9677 36.2536 71.4823 36.6216 70.8956 36.8883C70.309 37.155 69.653 37.2883 68.9276 37.2883C68.053 37.2883 67.2743 37.1016 66.5916 36.7283C65.909 36.355 65.3756 35.8216 64.9916 35.1283C64.6076 34.435 64.4156 33.6243 64.4156 32.6963C64.4156 31.7683 64.6023 30.9576 64.9756 30.2643C65.3596 29.571 65.893 29.0376 66.5756 28.6643C67.2583 28.291 68.0423 28.1043 68.9276 28.1043C69.7916 28.1043 70.5596 28.2856 71.2316 28.6483C71.9036 29.011 72.4263 29.5283 72.7996 30.2003C73.1836 30.8723 73.3756 31.6563 73.3756 32.5523ZM70.5756 31.8323C70.5756 31.363 70.4156 30.9896 70.0956 30.7123C69.7756 30.435 69.3756 30.2963 68.8956 30.2963C68.437 30.2963 68.0476 30.4296 67.7276 30.6963C67.4183 30.963 67.2263 31.3416 67.1516 31.8323H70.5756Z" fill="white"/>
<path d="M77.555 29.7203C77.875 29.2296 78.275 28.8456 78.755 28.5683C79.235 28.2803 79.7684 28.1363 80.355 28.1363V31.0323H79.603C78.9204 31.0323 78.4084 31.1816 78.067 31.4803C77.7257 31.7683 77.555 32.2803 77.555 33.0163V37.1603H74.819V28.2323H77.555V29.7203Z" fill="white"/>
<path d="M90.0788 32.5523C90.0788 32.8083 90.0628 33.075 90.0308 33.3523H83.8388C83.8814 33.907 84.0574 34.3336 84.3668 34.6323C84.6868 34.9203 85.0761 35.0643 85.5348 35.0643C86.2174 35.0643 86.6921 34.7763 86.9588 34.2003H89.8708C89.7214 34.787 89.4494 35.315 89.0548 35.7843C88.6708 36.2536 88.1854 36.6216 87.5988 36.8883C87.0121 37.155 86.3561 37.2883 85.6308 37.2883C84.7561 37.2883 83.9774 37.1016 83.2948 36.7283C82.6121 36.355 82.0788 35.8216 81.6948 35.1283C81.3108 34.435 81.1188 33.6243 81.1188 32.6963C81.1188 31.7683 81.3054 30.9576 81.6788 30.2643C82.0628 29.571 82.5961 29.0376 83.2788 28.6643C83.9614 28.291 84.7454 28.1043 85.6308 28.1043C86.4948 28.1043 87.2628 28.2856 87.9348 28.6483C88.6068 29.011 89.1294 29.5283 89.5028 30.2003C89.8868 30.8723 90.0788 31.6563 90.0788 32.5523ZM87.2788 31.8323C87.2788 31.363 87.1188 30.9896 86.7988 30.7123C86.4788 30.435 86.0788 30.2963 85.5988 30.2963C85.1401 30.2963 84.7508 30.4296 84.4308 30.6963C84.1214 30.963 83.9294 31.3416 83.8548 31.8323H87.2788Z" fill="white"/>
</svg>
