<svg width="152" height="152" viewBox="0 0 152 152" fill="none" xmlns="http://www.w3.org/2000/svg">
<style>
    @media (prefers-color-scheme: dark) {
      path { fill: #ffffff; }
    }
  </style>
<path d="M57 95C58.3117 95 59.375 96.0633 59.375 97.375L59.375 102.125C59.375 103.437 58.3117 104.5 57 104.5L26.125 104.5C24.8133 104.5 23.75 103.437 23.75 102.125L23.75 97.375C23.75 96.0633 24.8133 95 26.125 95L57 95Z" fill="#FFA217"/>
<path d="M125.875 95C127.187 95 128.25 96.0633 128.25 97.375L128.25 102.125C128.25 103.437 127.187 104.5 125.875 104.5L95 104.5C93.6883 104.5 92.625 103.437 92.625 102.125L92.625 97.375C92.625 96.0633 93.6883 95 95 95L125.875 95Z" fill="#777777"/>
<path d="M125.875 30.875C127.187 30.875 128.25 31.9383 128.25 33.25L128.25 38C128.25 39.3117 127.187 40.375 125.875 40.375L95 40.375C93.6883 40.375 92.625 39.3117 92.625 38L92.625 33.25C92.625 31.9383 93.6883 30.875 95 30.875L125.875 30.875Z" fill="#F5E411"/>
<path d="M57 30.875C58.3117 30.875 59.375 31.9383 59.375 33.25L59.375 38C59.375 39.3117 58.3117 40.375 57 40.375L26.125 40.375C24.8133 40.375 23.75 39.3117 23.75 38L23.75 33.25C23.75 31.9383 24.8133 30.875 26.125 30.875L57 30.875Z" fill="#4FBB7D"/>
<path d="M57 111.625C58.3117 111.625 59.375 112.688 59.375 114L59.375 118.75C59.375 120.062 58.3117 121.125 57 121.125L26.125 121.125C24.8133 121.125 23.75 120.062 23.75 118.75L23.75 114C23.75 112.688 24.8133 111.625 26.125 111.625L57 111.625Z" fill="#F10B7A"/>
<path d="M125.875 111.625C127.187 111.625 128.25 112.688 128.25 114L128.25 118.75C128.25 120.062 127.187 121.125 125.875 121.125L95 121.125C93.6883 121.125 92.625 120.062 92.625 118.75L92.625 114C92.625 112.688 93.6883 111.625 95 111.625L125.875 111.625Z" fill="#4FBB7D"/>
<path d="M125.875 47.5C127.187 47.5 128.25 48.5633 128.25 49.875L128.25 54.625C128.25 55.9366 127.187 57 125.875 57L95 57C93.6883 57 92.625 55.9366 92.625 54.625L92.625 49.875C92.625 48.5633 93.6883 47.5 95 47.5L125.875 47.5Z" fill="#8438B7"/>
<path d="M57 47.5C58.3117 47.5 59.375 48.5633 59.375 49.875L59.375 54.625C59.375 55.9367 58.3117 57 57 57L26.125 57C24.8133 57 23.75 55.9367 23.75 54.625L23.75 49.875C23.75 48.5633 24.8133 47.5 26.125 47.5L57 47.5Z" fill="#E14430"/>
<path fill-rule="evenodd" clip-rule="evenodd" d="M68.875 19C67.5633 19 66.5 20.0633 66.5 21.375V66.5H21.375C20.0633 66.5 19 67.5633 19 68.875L19 83.125C19 84.4367 20.0633 85.5 21.375 85.5H66.5L66.5 130.625C66.5 131.937 67.5633 133 68.875 133H83.125C84.4367 133 85.5 131.937 85.5 130.625V85.5H130.625C131.937 85.5 133 84.4367 133 83.125V68.875C133 67.5633 131.937 66.5 130.625 66.5L85.5 66.5V21.375C85.5 20.0633 84.4367 19 83.125 19H68.875Z" fill="#016FD6"/>
</svg>
