<svg width="64" height="64" viewBox="0 0 64 64" fill="none" xmlns="http://www.w3.org/2000/svg">
<path fill-rule="evenodd" clip-rule="evenodd" d="M26.4264 9.37556C28.1452 8.47163 30.058 7.9993 32 7.9993C33.942 7.9993 35.8548 8.47163 37.5736 9.37556C39.0406 10.1471 40.3286 11.2133 41.3587 12.504C42.3268 12.5386 43.28 12.7628 44.1638 13.1653C45.1639 13.6206 46.0501 14.2928 46.7583 15.133C47.4665 15.9732 47.9789 16.9605 48.2584 18.0232C48.4403 18.7152 48.5206 19.4279 48.4983 20.1391C50.1541 21.0926 51.5627 22.4312 52.6008 24.0479C53.8364 25.9723 54.4955 28.2101 54.5 30.497L53 30.5L54.5 30.5003C54.4994 33.2479 53.5556 35.912 51.8265 38.0473C50.2512 39.9925 48.1112 41.3913 45.7109 42.0572C45.1073 43.1351 44.3015 44.0895 43.3352 44.8666C42.175 45.7997 40.815 46.4521 39.3611 46.773C37.9073 47.0938 36.399 47.0744 34.9538 46.7162C33.9016 46.4555 32.9036 46.0202 32.0003 45.4313C31.0973 46.0204 30.0997 46.4559 29.0478 46.717C27.603 47.0757 26.0949 47.0957 24.6412 46.7756C23.1874 46.4555 21.8272 45.8038 20.6667 44.8715C19.7003 44.095 18.8942 43.1415 18.2901 42.0642C16.1086 41.4615 14.1371 40.2514 12.6095 38.568C10.9175 36.7033 9.85607 34.3529 9.57609 31.8506C9.29612 29.3483 9.81182 26.8214 11.0499 24.6289C12.1082 22.7549 13.6482 21.2066 15.5017 20.1392C15.4794 19.428 15.5597 18.7152 15.7416 18.0232C16.0211 16.9605 16.5335 15.9732 17.2417 15.133C17.9499 14.2928 18.8361 13.6206 19.8362 13.1653C20.72 12.7628 21.6732 12.5386 22.6413 12.504C23.6714 11.2133 24.9594 10.1471 26.4264 9.37556ZM51.5 30.501C51.4962 28.7874 51.0022 27.1108 50.0764 25.6688C49.1502 24.2264 47.8304 23.0792 46.2731 22.3627C45.6479 22.0751 45.2986 21.3989 45.4259 20.7226C45.5468 20.08 45.5233 19.4185 45.357 18.7862C45.1907 18.1538 44.8858 17.5664 44.4644 17.0664C44.043 16.5665 43.5157 16.1665 42.9206 15.8956C42.3295 15.6264 41.6863 15.4912 41.037 15.4996C41.0329 15.5001 41.028 15.5008 41.022 15.5016C41.0191 15.502 41.0147 15.5027 41.0091 15.5035C40.987 15.5066 40.9469 15.5123 40.9138 15.5165C40.8652 15.5228 40.7999 15.5302 40.725 15.535C40.1985 15.5684 39.6931 15.3227 39.3941 14.888C38.5693 13.6888 37.4653 12.7082 36.1772 12.0308C34.889 11.3533 33.4554 10.9993 32 10.9993C30.5446 10.9993 29.111 11.3533 27.8228 12.0308C26.5347 12.7082 25.4307 13.6888 24.6059 14.888C24.3069 15.3227 23.8015 15.5684 23.275 15.535C23.2001 15.5302 23.1348 15.5228 23.0862 15.5165C23.0531 15.5123 23.013 15.5066 22.9909 15.5035C22.9853 15.5027 22.9809 15.502 22.978 15.5016C22.972 15.5008 22.9671 15.5001 22.963 15.4996C22.3137 15.4912 21.6705 15.6264 21.0794 15.8956C20.4843 16.1665 19.957 16.5665 19.5356 17.0664C19.1142 17.5664 18.8093 18.1538 18.643 18.7862C18.4767 19.4185 18.4532 20.08 18.5741 20.7226C18.7014 21.3989 18.3522 22.075 17.727 22.3627C16.0125 23.1516 14.5902 24.4607 13.6622 26.104C12.7342 27.7474 12.3476 29.6414 12.5575 31.517C12.7673 33.3926 13.5629 35.1543 14.8312 36.552C16.0994 37.9496 17.7759 38.912 19.6223 39.3025C20.0849 39.4003 20.4742 39.7104 20.673 40.1394C21.1046 41.0708 21.7454 41.8898 22.5457 42.5328C23.3459 43.1757 24.2838 43.625 25.2863 43.8458C26.2888 44.0665 27.3287 44.0527 28.325 43.8054C29.3213 43.5581 30.2469 43.084 31.0298 42.42C31.5894 41.9454 32.4101 41.9453 32.9698 42.4197C33.753 43.0835 34.679 43.5574 35.6755 43.8043C36.672 44.0513 37.7121 44.0647 38.7146 43.8434C39.7172 43.6222 40.655 43.1723 41.455 42.5289C42.255 41.8855 42.8956 41.0659 43.3266 40.1342C43.525 39.7054 43.9138 39.3951 44.3759 39.2968C46.3912 38.8681 48.1984 37.7605 49.4951 36.1593C50.7915 34.5583 51.4993 32.561 51.5 30.501ZM23 15.5C22.9966 15.5 22.9934 15.5 22.9902 15.4999L23 15.5Z" fill="black"/>
<path fill-rule="evenodd" clip-rule="evenodd" d="M32 23C32.8284 23 33.5 23.6716 33.5 24.5V54.5C33.5 55.3284 32.8284 56 32 56C31.1716 56 30.5 55.3284 30.5 54.5V24.5C30.5 23.6716 31.1716 23 32 23Z" fill="black"/>
<path fill-rule="evenodd" clip-rule="evenodd" d="M41 27.5C41.8284 27.5 42.5 28.1716 42.5 29C42.5 32.2312 41.6912 34.9301 39.8107 36.8107C37.9301 38.6912 35.2312 39.5 32 39.5C31.1716 39.5 30.5 38.8284 30.5 38C30.5 37.1716 31.1716 36.5 32 36.5C34.7688 36.5 36.5699 35.8088 37.6893 34.6893C38.8088 33.5699 39.5 31.7688 39.5 29C39.5 28.1716 40.1716 27.5 41 27.5Z" fill="black"/>
<path fill-rule="evenodd" clip-rule="evenodd" d="M24.5904 23.0027C25.4173 23.0526 26.0472 23.7634 25.9973 24.5904C25.9497 25.3792 26.07 26.1692 26.3503 26.9081C26.6305 27.6469 27.0644 28.318 27.6232 28.8768C28.182 29.4356 28.853 29.8694 29.5919 30.1497C30.3308 30.43 31.1208 30.5503 31.9096 30.5027C32.7366 30.4528 33.4474 31.0827 33.4973 31.9096C33.5472 32.7366 32.9173 33.4474 32.0904 33.4973C30.8779 33.5704 29.6637 33.3855 28.5279 32.9547C27.3922 32.5239 26.3608 31.857 25.5019 30.9981C24.643 30.1392 23.9761 29.1078 23.5453 27.9721C23.1145 26.8363 22.9295 25.6221 23.0027 24.4096C23.0526 23.5827 23.7634 22.9528 24.5904 23.0027Z" fill="black"/>
</svg>
