<svg width="64" height="64" viewBox="0 0 64 64" fill="none" xmlns="http://www.w3.org/2000/svg">
<path fill-rule="evenodd" clip-rule="evenodd" d="M14.526 48.5C15.3544 48.5 16.026 49.1716 16.026 50C16.026 50.7957 16.3421 51.5587 16.9047 52.1213C17.4673 52.6839 18.2304 53 19.026 53H50.526C51.3544 53 52.026 53.6716 52.026 54.5C52.026 55.3284 51.3544 56 50.526 56H19.026C17.4347 56 15.9086 55.3679 14.7834 54.2426C13.6581 53.1174 13.026 51.5913 13.026 50C13.026 49.1716 13.6976 48.5 14.526 48.5Z" fill="black"/>
<path fill-rule="evenodd" clip-rule="evenodd" d="M15.2227 10.1967C16.6292 8.79018 18.5369 8 20.526 8H50.526C51.3544 8 52.026 8.67157 52.026 9.5V45.5C52.026 46.3284 51.3544 47 50.526 47H19.026C18.2304 47 17.4673 47.3161 16.9047 47.8787C16.3421 48.4413 16.026 49.2043 16.026 50C16.026 50.8284 15.3544 51.5 14.526 51.5C13.6976 51.5 13.026 50.8284 13.026 50V15.5C13.026 13.5109 13.8162 11.6032 15.2227 10.1967ZM16.026 44.8038C16.9304 44.2817 17.9637 44 19.026 44H49.026V11H20.526C19.3325 11 18.1879 11.4741 17.344 12.318C16.5001 13.1619 16.026 14.3065 16.026 15.5V44.8038Z" fill="black"/>
<path fill-rule="evenodd" clip-rule="evenodd" d="M47.526 44C48.3544 44 49.026 44.6716 49.026 45.5V54.5C49.026 55.3284 48.3544 56 47.526 56C46.6976 56 46.026 55.3284 46.026 54.5V45.5C46.026 44.6716 46.6976 44 47.526 44Z" fill="black"/>
<path fill-rule="evenodd" clip-rule="evenodd" d="M25.026 24.5C25.026 23.6716 25.6976 23 26.526 23H38.526C39.3544 23 40.026 23.6716 40.026 24.5C40.026 25.3284 39.3544 26 38.526 26H26.526C25.6976 26 25.026 25.3284 25.026 24.5Z" fill="black"/>
<path fill-rule="evenodd" clip-rule="evenodd" d="M32.526 17C33.3544 17 34.026 17.6716 34.026 18.5V36.5C34.026 37.3284 33.3544 38 32.526 38C31.6976 38 31.026 37.3284 31.026 36.5V18.5C31.026 17.6716 31.6976 17 32.526 17Z" fill="black"/>
</svg>
