<svg width="64" height="64" viewBox="0 0 64 64" fill="none" xmlns="http://www.w3.org/2000/svg">
<path d="M23.494 36.5C22.138 35.6002 20.5633 35.085 18.9377 35.0091C17.3121 34.9332 15.6963 35.2995 14.2623 36.069C12.8284 36.8385 11.6299 37.9825 10.7945 39.379C9.95901 40.7756 9.51788 42.3726 9.51801 44M53.018 44C53.0181 42.3726 52.577 40.7756 51.7415 39.379C50.9061 37.9825 49.7076 36.8385 48.2737 36.069C46.8397 35.2995 45.2239 34.9332 43.5983 35.0091C41.9727 35.085 40.398 35.6002 39.042 36.5M38.018 26C38.018 27.5913 38.6501 29.1174 39.7754 30.2426C40.9006 31.3679 42.4267 32 44.018 32C45.6093 32 47.1354 31.3679 48.2606 30.2426C49.3859 29.1174 50.018 27.5913 50.018 26M38.018 26C38.018 24.4087 38.6501 22.8826 39.7754 21.7574C40.9006 20.6321 42.4267 20 44.018 20C45.6093 20 47.1354 20.6321 48.2606 21.7574C49.3859 22.8826 50.018 24.4087 50.018 26M38.018 26C38.018 26 38.018 33.5 33.518 33.5M50.018 26C50.018 26 50.018 33.5 54.518 33.5M38.312 54.5C37.5219 53.1324 36.3859 51.9968 35.018 51.2073C33.65 50.4178 32.0984 50.0021 30.519 50.0021C28.9396 50.0021 27.388 50.4178 26.0201 51.2073C24.6522 51.9968 23.5161 53.1324 22.726 54.5M24.518 15.5H36.518M30.518 9.5V21.5M12.518 26C12.518 27.5913 13.1501 29.1174 14.2754 30.2426C15.4006 31.3679 16.9267 32 18.518 32C20.1093 32 21.6354 31.3679 22.7606 30.2426C23.8859 29.1174 24.518 27.5913 24.518 26C24.518 24.4087 23.8859 22.8826 22.7606 21.7574C21.6354 20.6321 20.1093 20 18.518 20C16.9267 20 15.4006 20.6321 14.2754 21.7574C13.1501 22.8826 12.518 24.4087 12.518 26ZM26.018 44C26.018 45.1935 26.4921 46.3381 27.336 47.182C28.1799 48.0259 29.3245 48.5 30.518 48.5C31.7115 48.5 32.8561 48.0259 33.7 47.182C34.5439 46.3381 35.018 45.1935 35.018 44C35.018 42.8065 34.5439 41.6619 33.7 40.818C32.8561 39.9741 31.7115 39.5 30.518 39.5C29.3245 39.5 28.1799 39.9741 27.336 40.818C26.4921 41.6619 26.018 42.8065 26.018 44Z" stroke="black" stroke-width="3" stroke-linecap="round" stroke-linejoin="round"/>
</svg>
