<svg width="64" height="64" viewBox="0 0 64 64" fill="none" xmlns="http://www.w3.org/2000/svg">
<path fill-rule="evenodd" clip-rule="evenodd" d="M32.9541 32.9541C35.4858 30.4223 38.9196 29 42.5 29C46.0804 29 49.5142 30.4223 52.0459 32.9541C54.5777 35.4858 56 38.9196 56 42.5C56 46.0804 54.5777 49.5142 52.0459 52.0459C49.5142 54.5777 46.0804 56 42.5 56C38.9196 56 35.4858 54.5777 32.9541 52.0459C30.4223 49.5142 29 46.0804 29 42.5C29 38.9196 30.4223 35.4858 32.9541 32.9541ZM42.5 32C39.7152 32 37.0445 33.1062 35.0754 35.0754C33.1062 37.0445 32 39.7152 32 42.5C32 45.2848 33.1062 47.9555 35.0754 49.9246C37.0445 51.8938 39.7152 53 42.5 53C45.2848 53 47.9555 51.8938 49.9246 49.9246C51.8938 47.9555 53 45.2848 53 42.5C53 39.7152 51.8938 37.0445 49.9246 35.0754C47.9555 33.1062 45.2848 32 42.5 32Z" fill="black"/>
<path fill-rule="evenodd" clip-rule="evenodd" d="M42.5 35C43.3284 35 44 35.6716 44 36.5V48.5C44 49.3284 43.3284 50 42.5 50C41.6716 50 41 49.3284 41 48.5V36.5C41 35.6716 41.6716 35 42.5 35Z" fill="black"/>
<path fill-rule="evenodd" clip-rule="evenodd" d="M36.9393 42.9393C37.5251 42.3536 38.4749 42.3536 39.0607 42.9393L43.5607 47.4393C44.1464 48.0251 44.1464 48.9749 43.5607 49.5607C42.9749 50.1464 42.0251 50.1464 41.4393 49.5607L36.9393 45.0607C36.3536 44.4749 36.3536 43.5251 36.9393 42.9393Z" fill="black"/>
<path fill-rule="evenodd" clip-rule="evenodd" d="M48.0607 42.9393C48.6464 43.5251 48.6464 44.4749 48.0607 45.0607L43.5607 49.5607C42.9749 50.1464 42.0251 50.1464 41.4393 49.5607C40.8536 48.9749 40.8536 48.0251 41.4393 47.4393L45.9393 42.9393C46.5251 42.3536 47.4749 42.3536 48.0607 42.9393Z" fill="black"/>
<path fill-rule="evenodd" clip-rule="evenodd" d="M14 21.5C14 20.6716 14.6716 20 15.5 20H36.5C37.3284 20 38 20.6716 38 21.5C38 22.3284 37.3284 23 36.5 23H15.5C14.6716 23 14 22.3284 14 21.5Z" fill="black"/>
<path fill-rule="evenodd" clip-rule="evenodd" d="M14 30.5C14 29.6716 14.6716 29 15.5 29H27.5C28.3284 29 29 29.6716 29 30.5C29 31.3284 28.3284 32 27.5 32H15.5C14.6716 32 14 31.3284 14 30.5Z" fill="black"/>
<path fill-rule="evenodd" clip-rule="evenodd" d="M14 39.5C14 38.6716 14.6716 38 15.5 38H23C23.8284 38 24.5 38.6716 24.5 39.5C24.5 40.3284 23.8284 41 23 41H15.5C14.6716 41 14 40.3284 14 39.5Z" fill="black"/>
<path fill-rule="evenodd" clip-rule="evenodd" d="M12.5 11C12.1022 11 11.7206 11.158 11.4393 11.4393C11.158 11.7206 11 12.1022 11 12.5V45.5C11 45.8978 11.158 46.2794 11.4393 46.5607C11.7206 46.842 12.1022 47 12.5 47H23C23.8284 47 24.5 47.6716 24.5 48.5C24.5 49.3284 23.8284 50 23 50H12.5C11.3065 50 10.1619 49.5259 9.31802 48.682C8.47411 47.8381 8 46.6935 8 45.5V12.5C8 11.3065 8.47411 10.1619 9.31802 9.31802C10.1619 8.47411 11.3065 8 12.5 8H33.758C34.9506 8.00025 36.0947 8.47395 36.9383 9.317L42.6827 15.0613C43.5257 15.9049 43.9997 17.049 44 18.2417V23C44 23.8284 43.3284 24.5 42.5 24.5C41.6716 24.5 41 23.8284 41 23V18.2423C41 18.2422 41 18.2424 41 18.2423C40.9998 17.8449 40.8419 17.4634 40.561 17.1823L34.8177 11.439C34.8176 11.4389 34.8178 11.4391 34.8177 11.439C34.5366 11.1583 34.1553 11.0002 33.758 11C33.7579 11 33.7581 11 33.758 11H12.5Z" fill="black"/>
</svg>
