<svg width="64" height="64" viewBox="0 0 64 64" fill="none" xmlns="http://www.w3.org/2000/svg">
<path fill-rule="evenodd" clip-rule="evenodd" d="M29 21.498C29 20.6696 29.6716 19.998 30.5 19.998H54.5C55.3284 19.998 56 20.6696 56 21.498V51.498C56 52.3264 55.3284 52.998 54.5 52.998H30.5C29.6716 52.998 29 52.3264 29 51.498V21.498ZM32 22.998V49.998H53V22.998H32Z" fill="black"/>
<path fill-rule="evenodd" clip-rule="evenodd" d="M39.5 10.998C39.1022 10.998 38.7206 11.1561 38.4393 11.4374C38.158 11.7187 38 12.1002 38 12.498V21.498C38 22.3264 37.3284 22.998 36.5 22.998C35.6716 22.998 35 22.3264 35 21.498V12.498C35 11.3045 35.4741 10.16 36.318 9.31604C37.1619 8.47212 38.3065 7.99802 39.5 7.99802H45.5C46.6935 7.99802 47.8381 8.47212 48.682 9.31604C49.5259 10.1599 50 11.3045 50 12.498V21.498C50 22.3264 49.3284 22.998 48.5 22.998C47.6716 22.998 47 22.3264 47 21.498V12.498C47 12.1002 46.842 11.7187 46.5607 11.4374C46.2794 11.1561 45.8978 10.998 45.5 10.998H39.5Z" fill="black"/>
<path fill-rule="evenodd" clip-rule="evenodd" d="M38 30.498C38.8284 30.498 39.5 31.1696 39.5 31.998V42.498C39.5 43.3264 38.8284 43.998 38 43.998C37.1716 43.998 36.5 43.3264 36.5 42.498V31.998C36.5 31.1696 37.1716 30.498 38 30.498Z" fill="black"/>
<path fill-rule="evenodd" clip-rule="evenodd" d="M47 30.498C47.8284 30.498 48.5 31.1696 48.5 31.998V42.498C48.5 43.3264 47.8284 43.998 47 43.998C46.1716 43.998 45.5 43.3264 45.5 42.498V31.998C45.5 31.1696 46.1716 30.498 47 30.498Z" fill="black"/>
<path fill-rule="evenodd" clip-rule="evenodd" d="M36.5 49.998C37.3284 49.998 38 50.6696 38 51.498V54.498C38 55.3264 37.3284 55.998 36.5 55.998C35.6716 55.998 35 55.3264 35 54.498V51.498C35 50.6696 35.6716 49.998 36.5 49.998Z" fill="black"/>
<path fill-rule="evenodd" clip-rule="evenodd" d="M48.5 49.998C49.3284 49.998 50 50.6696 50 51.498V54.498C50 55.3264 49.3284 55.998 48.5 55.998C47.6716 55.998 47 55.3264 47 54.498V51.498C47 50.6696 47.6716 49.998 48.5 49.998Z" fill="black"/>
<path fill-rule="evenodd" clip-rule="evenodd" d="M17 33.498C17 32.6696 17.6716 31.998 18.5 31.998H24.5C25.3284 31.998 26 32.6696 26 33.498C26 34.3264 25.3284 34.998 24.5 34.998H18.5C17.6716 34.998 17 34.3264 17 33.498Z" fill="black"/>
<path fill-rule="evenodd" clip-rule="evenodd" d="M12.5 42.498C12.5 41.6696 13.1716 40.998 14 40.998H24.5C25.3284 40.998 26 41.6696 26 42.498C26 43.3264 25.3284 43.998 24.5 43.998H14C13.1716 43.998 12.5 43.3264 12.5 42.498Z" fill="black"/>
<path fill-rule="evenodd" clip-rule="evenodd" d="M8 51.498C8 50.6696 8.67157 49.998 9.5 49.998H24.5C25.3284 49.998 26 50.6696 26 51.498C26 52.3264 25.3284 52.998 24.5 52.998H9.5C8.67157 52.998 8 52.3264 8 51.498Z" fill="black"/>
</svg>
