<svg width="64" height="64" viewBox="0 0 64 64" fill="none" xmlns="http://www.w3.org/2000/svg">
<path fill-rule="evenodd" clip-rule="evenodd" d="M12.873 13.0136C13.427 12.3976 14.3754 12.3474 14.9914 12.9014L21.4697 18.728C22.0856 19.282 22.1358 20.2304 21.5819 20.8463C21.0279 21.4623 20.0795 21.5125 19.4635 20.9585L12.9852 15.1319C12.3692 14.5779 12.319 13.6295 12.873 13.0136Z" fill="black"/>
<path fill-rule="evenodd" clip-rule="evenodd" d="M7.54445 22.5147C7.74464 21.7109 8.55859 21.2215 9.36247 21.4217L17.8173 23.5271C18.6212 23.7273 19.1106 24.5413 18.9104 25.3451C18.7102 26.149 17.8963 26.6384 17.0924 26.4382L8.63753 24.3328C7.83366 24.1326 7.34427 23.3186 7.54445 22.5147Z" fill="black"/>
<path fill-rule="evenodd" clip-rule="evenodd" d="M21.1594 6.70371C21.8753 6.28685 22.7936 6.52927 23.2105 7.24517L27.5949 14.7748C28.0118 15.4907 27.7693 16.409 27.0534 16.8258C26.3375 17.2427 25.4192 17.0003 25.0024 16.2844L20.618 8.75477C20.2011 8.03886 20.4435 7.12058 21.1594 6.70371Z" fill="black"/>
<path fill-rule="evenodd" clip-rule="evenodd" d="M16.4208 31.9106C17.6324 31.0757 19.0067 30.5062 20.4538 30.2395C21.2685 30.0893 22.0506 30.628 22.2008 31.4427C22.351 32.2574 21.8122 33.0396 20.9975 33.1898C19.9662 33.3799 18.9866 33.7858 18.123 34.3808C17.2596 34.9758 16.5317 35.7465 15.9868 36.6423L12.6847 42.082C11.6526 43.7823 11.3381 45.8231 11.8106 47.7553C12.0446 48.7121 12.4647 49.6133 13.0469 50.4077C13.6292 51.2021 14.3622 51.874 15.2042 52.3851C16.0461 52.8962 16.9805 53.2364 17.9539 53.3864C18.9273 53.5364 19.9208 53.4932 20.8775 53.2592C22.8097 52.7867 24.4751 51.566 25.5073 49.8657L28.809 44.4265C29.3525 43.5296 29.7004 42.528 29.8298 41.4872C29.9592 40.4465 29.8673 39.3902 29.56 38.3875C29.3172 37.5954 29.7626 36.7565 30.5546 36.5138C31.3467 36.271 32.1856 36.7163 32.4283 37.5084C32.8594 38.9152 32.9885 40.3973 32.8069 41.8574C32.6253 43.3176 32.1372 44.7229 31.3747 45.9813L28.0718 51.4224C26.6267 53.8029 24.2952 55.5119 21.5901 56.1734C20.2507 56.5009 18.8599 56.5614 17.4971 56.3514C16.1343 56.1414 14.8262 55.6651 13.6474 54.9496C12.4687 54.2341 11.4425 53.2934 10.6273 52.1813C9.81214 51.0691 9.224 49.8073 8.89647 48.4679C8.235 45.7628 8.67521 42.9058 10.1203 40.5252L13.4232 35.0842C14.1877 33.8269 15.2092 32.7455 16.4208 31.9106Z" fill="black"/>
<path fill-rule="evenodd" clip-rule="evenodd" d="M25.3638 28.5448C26.1675 28.7457 26.6561 29.5601 26.4552 30.3638L23.4552 42.3638C23.2543 43.1675 22.4399 43.6561 21.6362 43.4552C20.8325 43.2543 20.3439 42.4399 20.5448 41.6362L23.5448 29.6362C23.7457 28.8325 24.5601 28.3439 25.3638 28.5448Z" fill="black"/>
<path fill-rule="evenodd" clip-rule="evenodd" d="M46.0879 23.6108C46.1112 24.4389 45.4589 25.1291 44.6308 25.1525L31.2944 25.5286C30.4663 25.552 29.7761 24.8996 29.7527 24.0715C29.7294 23.2434 30.3817 22.5532 31.2098 22.5298L44.5462 22.1537C45.3743 22.1303 46.0645 22.7827 46.0879 23.6108Z" fill="black"/>
<path fill-rule="evenodd" clip-rule="evenodd" d="M44.0755 9.61975C46.6157 8.47849 49.5052 8.39306 52.1084 9.38226C54.7116 10.3715 56.8152 12.3542 57.9565 14.8944C59.0977 17.4346 59.1832 20.3241 58.194 22.9273C57.2048 25.5305 55.222 27.6341 52.6818 28.7754L46.8756 31.384C45.533 31.9858 44.0784 32.2972 42.607 32.2978C41.1357 32.2984 39.6808 31.9881 38.3377 31.3874C37.5815 31.0491 37.2427 30.1619 37.5809 29.4056C37.9192 28.6494 38.8064 28.3106 39.5626 28.6488C40.52 29.077 41.5571 29.2982 42.6058 29.2978C43.6546 29.2973 44.6915 29.0754 45.6485 28.6464L51.4523 26.0389C53.2668 25.2237 54.683 23.7211 55.3896 21.8617C56.0962 20.0023 56.0351 17.9383 55.22 16.1239C54.4048 14.3095 52.9022 12.8932 51.0428 12.1866C49.1834 11.48 47.1194 11.5411 45.305 12.3563L39.5035 14.9627L39.5018 14.9635C38.5474 15.3955 37.6948 16.024 36.9997 16.8079C36.3042 17.5923 35.7821 18.5146 35.4675 19.5146C35.2189 20.3048 34.3767 20.7439 33.5865 20.4952C32.7962 20.2466 32.3572 19.4044 32.6058 18.6142C33.0471 17.2116 33.7795 15.9178 34.755 14.8176C35.7306 13.7174 36.9273 12.8354 38.267 12.2294L38.2705 12.2278L44.0755 9.61975Z" fill="black"/>
</svg>
