<svg width="64" height="64" viewBox="0 0 64 64" fill="none" xmlns="http://www.w3.org/2000/svg">
<path fill-rule="evenodd" clip-rule="evenodd" d="M41.6967 13.1967C43.1032 11.7902 45.0109 11 47 11C48.9891 11 50.8968 11.7902 52.3033 13.1967C53.7098 14.6032 54.5 16.5109 54.5 18.5C54.5 20.4891 53.7098 22.3968 52.3033 23.8033C50.8968 25.2098 48.9891 26 47 26C45.0109 26 43.1032 25.2098 41.6967 23.8033C40.2902 22.3968 39.5 20.4891 39.5 18.5C39.5 16.5109 40.2902 14.6032 41.6967 13.1967ZM47 14C45.8065 14 44.6619 14.4741 43.818 15.318C42.9741 16.1619 42.5 17.3065 42.5 18.5C42.5 19.6935 42.9741 20.8381 43.818 21.682C44.6619 22.5259 45.8065 23 47 23C48.1935 23 49.3381 22.5259 50.182 21.682C51.0259 20.8381 51.5 19.6935 51.5 18.5C51.5 17.3065 51.0259 16.1619 50.182 15.318C49.3381 14.4741 48.1935 14 47 14Z" fill="black"/>
<path fill-rule="evenodd" clip-rule="evenodd" d="M46.1917 26.0364C47.8564 25.8863 49.53 26.2027 51.0249 26.9502C52.5199 27.6976 53.7771 28.8466 54.6559 30.2684C55.5346 31.6902 56 33.3286 56 35V39.5C56 40.3284 55.3284 41 54.5 41H52.8242L51.4884 51.6861C51.3946 52.4367 50.7565 53 50 53H44C43.2437 53 42.6057 52.437 42.5116 51.6865L42.1356 48.6865C42.0326 47.8645 42.6155 47.1147 43.4375 47.0116C44.2595 46.9086 45.0093 47.4915 45.1124 48.3135L45.3237 50H48.6758L50.0116 39.3139C50.1054 38.5633 50.7435 38 51.5 38H53V35C53 33.8857 52.6897 32.7935 52.1039 31.8456C51.5181 30.8978 50.6799 30.1318 49.6833 29.6334C48.6866 29.1351 47.5709 28.9242 46.4612 29.0242C45.3514 29.1243 44.2914 29.5314 43.4 30.2C42.7373 30.6971 41.7971 30.5627 41.3 29.9C40.8029 29.2373 40.9373 28.2971 41.6 27.8C42.9371 26.7972 44.5271 26.1865 46.1917 26.0364Z" fill="black"/>
<path fill-rule="evenodd" clip-rule="evenodd" d="M11.6967 13.1967C13.1032 11.7902 15.0109 11 17 11C18.9891 11 20.8968 11.7902 22.3033 13.1967C23.7098 14.6032 24.5 16.5109 24.5 18.5C24.5 20.4891 23.7098 22.3968 22.3033 23.8033C20.8968 25.2098 18.9891 26 17 26C15.0109 26 13.1032 25.2098 11.6967 23.8033C10.2902 22.3968 9.5 20.4891 9.5 18.5C9.5 16.5109 10.2902 14.6032 11.6967 13.1967ZM17 14C15.8065 14 14.6619 14.4741 13.818 15.318C12.9741 16.1619 12.5 17.3065 12.5 18.5C12.5 19.6935 12.9741 20.8381 13.818 21.682C14.6619 22.5259 15.8065 23 17 23C18.1935 23 19.3381 22.5259 20.182 21.682C21.0259 20.8381 21.5 19.6935 21.5 18.5C21.5 17.3065 21.0259 16.1619 20.182 15.318C19.3381 14.4741 18.1935 14 17 14Z" fill="black"/>
<path fill-rule="evenodd" clip-rule="evenodd" d="M17.5388 29.0242C16.4291 28.9242 15.3134 29.1351 14.3167 29.6334C13.3201 30.1318 12.4819 30.8978 11.8961 31.8456C11.3103 32.7935 11 33.8857 11 35V38H12.5C13.2565 38 13.8946 38.5633 13.9884 39.3139L15.3242 50H18.6763L18.8876 48.3135C18.9907 47.4915 19.7405 46.9086 20.5625 47.0116C21.3845 47.1147 21.9674 47.8645 21.8644 48.6865L21.4884 51.6865C21.3943 52.437 20.7563 53 20 53H14C13.2435 53 12.6054 52.4367 12.5116 51.6861L11.1758 41H9.5C8.67157 41 8 40.3284 8 39.5V35C8 33.3286 8.46543 31.6902 9.34414 30.2684C10.2229 28.8466 11.4801 27.6976 12.9751 26.9502C14.47 26.2027 16.1436 25.8863 17.8083 26.0364C19.4729 26.1865 21.0629 26.7972 22.4 27.8C23.0627 28.2971 23.1971 29.2373 22.7 29.9C22.2029 30.5627 21.2627 30.6971 20.6 30.2C19.7086 29.5314 18.6486 29.1243 17.5388 29.0242Z" fill="black"/>
<path fill-rule="evenodd" clip-rule="evenodd" d="M27.7574 21.7574C28.8826 20.6321 30.4087 20 32 20C33.5913 20 35.1174 20.6321 36.2426 21.7574C37.3679 22.8826 38 24.4087 38 26C38 27.5913 37.3679 29.1174 36.2426 30.2426C35.1174 31.3679 33.5913 32 32 32C30.4087 32 28.8826 31.3679 27.7574 30.2426C26.6321 29.1174 26 27.5913 26 26C26 24.4087 26.6321 22.8826 27.7574 21.7574ZM32 23C31.2044 23 30.4413 23.3161 29.8787 23.8787C29.3161 24.4413 29 25.2044 29 26C29 26.7956 29.3161 27.5587 29.8787 28.1213C30.4413 28.6839 31.2044 29 32 29C32.7956 29 33.5587 28.6839 34.1213 28.1213C34.6839 27.5587 35 26.7956 35 26C35 25.2044 34.6839 24.4413 34.1213 23.8787C33.5587 23.3161 32.7956 23 32 23Z" fill="black"/>
<path fill-rule="evenodd" clip-rule="evenodd" d="M25.636 34.636C27.3239 32.9482 29.6131 32 32 32C32.8284 32 33.5 32.6716 33.5 33.5C33.5 34.3284 32.8284 35 32 35C30.4087 35 28.8826 35.6321 27.7574 36.7574C26.6321 37.8826 26 39.4087 26 41H27.5C28.2333 41 28.859 41.5301 28.9796 42.2534L30.2707 50H32C32.8284 50 33.5 50.6716 33.5 51.5C33.5 52.3284 32.8284 53 32 53H29C28.2667 53 27.641 52.4699 27.5204 51.7466L26.2293 44H24.5C23.6716 44 23 43.3284 23 42.5V41C23 38.6131 23.9482 36.3239 25.636 34.636Z" fill="black"/>
<path fill-rule="evenodd" clip-rule="evenodd" d="M30.5 33.5C30.5 32.6716 31.1716 32 32 32C34.3869 32 36.6761 32.9482 38.364 34.636C40.0518 36.3239 41 38.6131 41 41V42.5C41 43.3284 40.3284 44 39.5 44H37.7707L36.4796 51.7466C36.359 52.4699 35.7333 53 35 53H32C31.1716 53 30.5 52.3284 30.5 51.5C30.5 50.6716 31.1716 50 32 50H33.7293L35.0204 42.2534C35.141 41.5301 35.7667 41 36.5 41H38C38 39.4087 37.3679 37.8826 36.2426 36.7574C35.1174 35.6321 33.5913 35 32 35C31.1716 35 30.5 34.3284 30.5 33.5Z" fill="black"/>
</svg>
