<svg width="64" height="64" viewBox="0 0 64 64" fill="none" xmlns="http://www.w3.org/2000/svg">
<path fill-rule="evenodd" clip-rule="evenodd" d="M15.5 34.5C16.3284 34.5 17 35.1716 17 36V51C17 51.3978 17.158 51.7794 17.4393 52.0607C17.7206 52.342 18.1022 52.5 18.5 52.5H45.5C45.8978 52.5 46.2794 52.342 46.5607 52.0607C46.842 51.7794 47 51.3978 47 51V36C47 35.1716 47.6716 34.5 48.5 34.5C49.3284 34.5 50 35.1716 50 36V51C50 52.1935 49.5259 53.3381 48.682 54.182C47.8381 55.0259 46.6935 55.5 45.5 55.5H18.5C17.3065 55.5 16.1619 55.0259 15.318 54.182C14.4741 53.3381 14 52.1935 14 51V36C14 35.1716 14.6716 34.5 15.5 34.5Z" fill="black"/>
<path fill-rule="evenodd" clip-rule="evenodd" d="M32 13.4987C31.8029 13.4987 31.6078 13.5375 31.4258 13.6129C31.2437 13.6884 31.0783 13.7989 30.939 13.9383L10.5607 34.3186C9.97495 34.9044 9.02521 34.9045 8.43939 34.3187C7.85358 33.733 7.85353 32.7832 8.43929 32.1974L28.817 11.8177C29.2348 11.3997 29.7312 11.0677 30.2773 10.8415C30.8234 10.6151 31.4088 10.4987 32 10.4987C32.5912 10.4987 33.1766 10.6151 33.7227 10.8415C34.2688 11.0677 34.7649 11.3994 35.1827 11.8174L55.5607 32.1974C56.1465 32.7832 56.1464 33.733 55.5606 34.3187C54.9748 34.9045 54.025 34.9044 53.4393 34.3186L33.0613 13.9386C32.922 13.7992 32.7563 13.6884 32.5742 13.6129C32.3922 13.5375 32.1971 13.4987 32 13.4987Z" fill="black"/>
<path fill-rule="evenodd" clip-rule="evenodd" d="M39.5 15C39.5 14.1716 40.1716 13.5 41 13.5H48.5C49.3284 13.5 50 14.1716 50 15V27.258C50 28.0864 49.3284 28.758 48.5 28.758C47.6716 28.758 47 28.0864 47 27.258V16.5H42.5V19.758C42.5 20.5864 41.8284 21.258 41 21.258C40.1716 21.258 39.5 20.5864 39.5 19.758V15Z" fill="black"/>
<path fill-rule="evenodd" clip-rule="evenodd" d="M24.8039 29.4397C25.4634 29.1571 26.1735 29.0115 26.891 29.0115C27.6085 29.0115 28.3186 29.1571 28.9781 29.4397C29.6358 29.7215 30.2296 30.1335 30.7237 30.6508L32 31.9704L33.2762 30.6509C33.7704 30.1335 34.3642 29.7215 35.0219 29.4397C35.6814 29.1571 36.3915 29.0115 37.109 29.0115C37.8265 29.0115 38.5366 29.1571 39.1961 29.4397C39.8552 29.7221 40.4502 30.1352 40.945 30.6542M26.891 32.0115C26.5796 32.0115 26.2715 32.0747 25.9853 32.1973C25.6991 32.3199 25.4407 32.4994 25.2259 32.7248L25.225 32.7258C24.7596 33.2132 24.5 33.8612 24.5 34.535C24.5 35.2075 24.7585 35.8541 25.222 36.3412L32 43.3508L38.778 36.3411C39.2415 35.8541 39.5 35.2074 39.5 34.535C39.5 33.8612 39.2404 33.2132 38.7751 32.7258L39.8602 31.6898L38.7741 32.7248C38.5593 32.4994 38.3009 32.3199 38.0147 32.1973C37.7285 32.0747 37.4204 32.0115 37.109 32.0115C36.7976 32.0115 36.4895 32.0747 36.2033 32.1973C35.9171 32.3199 35.6587 32.4994 35.4439 32.7248L35.4362 32.7329L33.0782 35.1708C32.7956 35.463 32.4065 35.628 32 35.628C31.5935 35.628 31.2044 35.463 30.9218 35.1708L28.5561 32.7248C28.3412 32.4994 28.0829 32.3199 27.7967 32.1973C27.5105 32.0747 27.2024 32.0115 26.891 32.0115ZM40.945 30.6542C41.9429 31.6997 42.5 33.0897 42.5 34.535C42.5 35.9805 41.9431 37.3703 40.945 38.4158L40.9384 38.4227L33.9191 45.6818C33.6718 45.9399 33.3749 46.1455 33.0462 46.2863C32.7156 46.4278 32.3597 46.5008 32 46.5008C31.6404 46.5008 31.2844 46.4278 30.9538 46.2863C30.6251 46.1455 30.3282 45.9399 30.0809 45.6818L23.055 38.4158C22.0569 37.3703 21.5 35.9805 21.5 34.535C21.5 33.0898 22.0567 31.7001 23.0546 30.6547C23.5495 30.1355 24.1446 29.7222 24.8039 29.4397" fill="black"/>
</svg>
