<svg width="64" height="64" viewBox="0 0 64 64" fill="none" xmlns="http://www.w3.org/2000/svg">
<path d="M40.25 17.75C40.25 17.0083 40.4699 16.2833 40.882 15.6666C41.294 15.0499 41.8797 14.5693 42.5649 14.2855C43.2502 14.0016 44.0042 13.9274 44.7316 14.0721C45.459 14.2168 46.1272 14.5739 46.6516 15.0984C47.1761 15.6228 47.5332 16.291 47.6779 17.0184C47.8226 17.7458 47.7484 18.4998 47.4646 19.1851C47.1807 19.8703 46.7001 20.456 46.0834 20.868C45.4667 21.2801 44.7417 21.5 44 21.5M50.36 28.356C52.0573 27.0851 53.3319 25.332 54.0174 23.3255C54.7029 21.3189 54.7674 19.1524 54.2025 17.1086C53.6375 15.0649 52.4694 13.239 50.8507 11.8695C49.232 10.4999 47.2379 9.65028 45.1288 9.43158C43.0198 9.21288 40.8938 9.63526 39.0285 10.6436C37.1632 11.6519 35.6453 13.1992 34.6731 15.0835C33.7008 16.9679 33.3194 19.1016 33.5786 21.206C33.8378 23.3105 34.7256 25.2879 36.126 26.88L34.814 34.438L39.878 31.316M34.92 54.486C33.8495 52.6621 32.3205 51.15 30.4848 50.0998C28.6492 49.0496 26.5708 48.4978 24.456 48.4992C22.3412 48.5006 20.2635 49.0552 18.4293 50.1079C16.5951 51.1606 15.0681 52.6747 14 54.5M44 36.5V54.5M9.5 54.5V15.5C9.5 13.9087 10.1321 12.3826 11.2574 11.2574C12.3826 10.1321 13.9087 9.5 15.5 9.5H30.5M9.5 18.642H27.5M44 26C43.8517 26 43.7067 26.044 43.5833 26.1264C43.46 26.2088 43.3639 26.3259 43.3071 26.463C43.2503 26.6 43.2355 26.7508 43.2644 26.8963C43.2934 27.0418 43.3648 27.1754 43.4697 27.2803C43.5746 27.3852 43.7082 27.4566 43.8537 27.4856C43.9992 27.5145 44.15 27.4997 44.287 27.4429C44.4241 27.3861 44.5412 27.29 44.6236 27.1667C44.706 27.0433 44.75 26.8983 44.75 26.75C44.75 26.5511 44.671 26.3603 44.5303 26.2197C44.3897 26.079 44.1989 26 44 26ZM17.714 38.75C17.714 39.6364 17.8886 40.5142 18.2278 41.3331C18.567 42.1521 19.0642 42.8962 19.691 43.523C20.3178 44.1498 21.0619 44.647 21.8809 44.9862C22.6998 45.3254 23.5776 45.5 24.464 45.5C25.3504 45.5 26.2282 45.3254 27.0471 44.9862C27.8661 44.647 28.6102 44.1498 29.237 43.523C29.8638 42.8962 30.361 42.1521 30.7002 41.3331C31.0394 40.5142 31.214 39.6364 31.214 38.75C31.214 37.8636 31.0394 36.9858 30.7002 36.1669C30.361 35.3479 29.8638 34.6038 29.237 33.977C28.6102 33.3502 27.8661 32.853 27.0471 32.5138C26.2282 32.1746 25.3504 32 24.464 32C23.5776 32 22.6998 32.1746 21.8809 32.5138C21.0619 32.853 20.3178 33.3502 19.691 33.977C19.0642 34.6038 18.567 35.3479 18.2278 36.1669C17.8886 36.9858 17.714 37.8636 17.714 38.75Z" stroke="black" stroke-width="3" stroke-linecap="round" stroke-linejoin="round"/>
</svg>
