<svg width="64" height="64" viewBox="0 0 64 64" fill="none" xmlns="http://www.w3.org/2000/svg">
<path fill-rule="evenodd" clip-rule="evenodd" d="M28.3787 17.8787C28.9413 17.3161 29.7044 17 30.5 17H33.5C34.2957 17 35.0587 17.3161 35.6213 17.8787C36.1839 18.4413 36.5 19.2043 36.5 20V24.5H41C41.7957 24.5 42.5587 24.8161 43.1213 25.3787C43.6839 25.9413 44 26.7043 44 27.5V30.5C44 31.2956 43.6839 32.0587 43.1213 32.6213C42.5587 33.1839 41.7957 33.5 41 33.5H36.5V45.5C36.5 46.2956 36.1839 47.0587 35.6213 47.6213C35.0587 48.1839 34.2957 48.5 33.5 48.5H30.5C29.7044 48.5 28.9413 48.1839 28.3787 47.6213C27.8161 47.0587 27.5 46.2956 27.5 45.5V33.5H23C22.2044 33.5 21.4413 33.1839 20.8787 32.6213C20.3161 32.0587 20 31.2956 20 30.5V27.5C20 26.7043 20.3161 25.9413 20.8787 25.3787C21.4413 24.8161 22.2044 24.5 23 24.5H27.5V20C27.5 19.2043 27.8161 18.4413 28.3787 17.8787ZM33.5 20H30.5L30.5 24.5C30.5 25.2956 30.1839 26.0587 29.6213 26.6213C29.0587 27.1839 28.2957 27.5 27.5 27.5H23L23 30.5H27.5C28.2957 30.5 29.0587 30.8161 29.6213 31.3787C30.1839 31.9413 30.5 32.7043 30.5 33.5V45.5H33.5V33.5C33.5 32.7043 33.8161 31.9413 34.3787 31.3787C34.9413 30.8161 35.7043 30.5 36.5 30.5H41V27.5H36.5C35.7043 27.5 34.9413 27.1839 34.3787 26.6213C33.8161 26.0587 33.5 25.2956 33.5 24.5V20Z" fill="black"/>
<path fill-rule="evenodd" clip-rule="evenodd" d="M16.063 8.32869C16.7099 7.81118 17.6538 7.91606 18.1713 8.56295L24.1713 16.063C24.6888 16.7098 24.5839 17.6538 23.937 18.1713C23.2902 18.6888 22.3462 18.5839 21.8287 17.937L15.8287 10.437C15.3112 9.79014 15.4161 8.84621 16.063 8.32869Z" fill="black"/>
<path fill-rule="evenodd" clip-rule="evenodd" d="M8.10729 22.4429C8.41496 21.6737 9.28791 21.2996 10.0571 21.6073L17.5571 24.6073C18.3263 24.9149 18.7004 25.7879 18.3927 26.5571C18.085 27.3263 17.2121 27.7004 16.4429 27.3927L8.94292 24.3927C8.17374 24.085 7.79962 23.2121 8.10729 22.4429Z" fill="black"/>
<path fill-rule="evenodd" clip-rule="evenodd" d="M18.2862 37.2283C18.7125 37.9386 18.4821 38.86 17.7717 39.2862L10.2717 43.7862C9.56138 44.2125 8.63999 43.9821 8.21376 43.2717C7.78754 42.5614 8.01789 41.64 8.72826 41.2138L16.2283 36.7138C16.9386 36.2875 17.86 36.5179 18.2862 37.2283Z" fill="black"/>
<path fill-rule="evenodd" clip-rule="evenodd" d="M23.937 45.8287C24.5839 46.3462 24.6888 47.2901 24.1713 47.937L18.1713 55.437C17.6538 56.0839 16.7099 56.1888 16.063 55.6713C15.4161 55.1538 15.3112 54.2098 15.8287 53.563L21.8287 46.063C22.3462 45.4161 23.2902 45.3112 23.937 45.8287Z" fill="black"/>
<path fill-rule="evenodd" clip-rule="evenodd" d="M47.937 8.32869C48.5839 8.84621 48.6888 9.79014 48.1713 10.437L42.1713 17.937C41.6538 18.5839 40.7099 18.6888 40.063 18.1713C39.4161 17.6538 39.3112 16.7098 39.8287 16.063L45.8287 8.56295C46.3462 7.91606 47.2902 7.81118 47.937 8.32869Z" fill="black"/>
<path fill-rule="evenodd" clip-rule="evenodd" d="M55.8927 22.4429C56.2004 23.2121 55.8263 24.085 55.0571 24.3927L47.5571 27.3927C46.7879 27.7004 45.915 27.3263 45.6073 26.5571C45.2996 25.7879 45.6737 24.9149 46.4429 24.6073L53.9429 21.6073C54.7121 21.2996 55.585 21.6737 55.8927 22.4429Z" fill="black"/>
<path fill-rule="evenodd" clip-rule="evenodd" d="M45.7138 37.2283C46.14 36.5179 47.0614 36.2875 47.7717 36.7138L55.2718 41.2138C55.9821 41.64 56.2125 42.5614 55.7862 43.2717C55.36 43.9821 54.4386 44.2125 53.7283 43.7862L46.2283 39.2862C45.5179 38.86 45.2875 37.9386 45.7138 37.2283Z" fill="black"/>
<path fill-rule="evenodd" clip-rule="evenodd" d="M40.063 45.8287C40.7099 45.3112 41.6538 45.4161 42.1713 46.063L48.1713 53.563C48.6888 54.2098 48.5839 55.1538 47.937 55.6713C47.2902 56.1888 46.3462 56.0839 45.8287 55.437L39.8287 47.937C39.3112 47.2901 39.4161 46.3462 40.063 45.8287Z" fill="black"/>
</svg>
