<svg width="64" height="64" viewBox="0 0 64 64" fill="none" xmlns="http://www.w3.org/2000/svg">
<path fill-rule="evenodd" clip-rule="evenodd" d="M9.75736 41.6194C10.8826 40.4941 12.4087 39.862 14 39.862H50C51.5913 39.862 53.1174 40.4941 54.2426 41.6194C55.3679 42.7446 56 44.2707 56 45.862C56 47.4533 55.3679 48.9794 54.2426 50.1046C53.1174 51.2299 51.5913 51.862 50 51.862H14C12.4087 51.862 10.8826 51.2299 9.75736 50.1046C8.63214 48.9794 8 47.4533 8 45.862C8 44.2707 8.63214 42.7446 9.75736 41.6194ZM50 42.862H14C13.2044 42.862 12.4413 43.1781 11.8787 43.7407C11.3161 44.3033 11 45.0663 11 45.862C11 46.6576 11.3161 47.4207 11.8787 47.9833C12.4413 48.5459 13.2044 48.862 14 48.862H50C50.7957 48.862 51.5587 48.5459 52.1213 47.9833C52.6839 47.4207 53 46.6576 53 45.862C53 45.0663 52.6839 44.3033 52.1213 43.7407C51.5587 43.1781 50.7957 42.862 50 42.862Z" fill="black"/>
<path fill-rule="evenodd" clip-rule="evenodd" d="M30.759 12.4078C31.1487 12.2304 31.5719 12.1387 32 12.1387C32.4281 12.1387 32.8513 12.2304 33.241 12.4078C33.6306 12.5851 33.9778 12.8439 34.259 13.1667C34.2974 13.2108 34.3333 13.2572 34.3663 13.3054L42.8161 25.6651C42.8296 25.6541 42.8433 25.6432 42.8572 25.6326L51.4192 19.1126C51.4937 19.056 51.5732 19.0064 51.6569 18.9645C52.1466 18.7195 52.694 18.6132 53.2399 18.6572C53.7857 18.7011 54.3091 18.8936 54.7533 19.2138C55.1975 19.534 55.5456 19.9696 55.7599 20.4736C55.9731 20.9748 56.0457 21.5247 55.9701 22.064L53.331 41.9593C53.2685 42.4301 52.9868 42.8435 52.5714 43.0738C52.1561 43.3041 51.6562 43.3242 51.2238 43.1278C50.8389 42.953 50.4212 42.8624 49.9986 42.862L14.0029 42.862C14.0026 42.862 14.0032 42.862 14.0029 42.862C13.5805 42.863 13.1622 42.954 12.7777 43.1291C12.3452 43.3261 11.845 43.3064 11.4293 43.0762C11.0135 42.846 10.7315 42.4323 10.669 41.9613L8.02986 22.0656C7.95435 21.5264 8.02699 20.9767 8.24009 20.4756C8.45437 19.9716 8.80248 19.536 9.24671 19.2158C9.69093 18.8956 10.2143 18.7031 10.7601 18.6592C11.306 18.6152 11.8534 18.7215 12.3431 18.9665C12.4267 19.0083 12.5062 19.0579 12.5806 19.1145L21.1426 25.6325C21.1566 25.6431 21.1703 25.654 21.1839 25.6651L29.6337 13.3054C29.6667 13.2572 29.7026 13.2108 29.741 13.1667C30.0222 12.8439 30.3694 12.5851 30.759 12.4078ZM13.9971 39.862C13.9981 39.862 13.999 39.862 14 39.862L50.0014 39.862C50.1947 39.8622 50.3875 39.8718 50.5791 39.8906L52.9942 21.6841L44.6921 28.0062C44.3759 28.2596 44.0115 28.4464 43.621 28.5551C43.2206 28.6667 42.8013 28.6938 42.3899 28.6347C41.9785 28.5757 41.5838 28.4318 41.2309 28.2121C40.878 27.9925 40.5746 27.7019 40.3399 27.3589L32 15.1599L23.6603 27.3586C23.4256 27.7016 23.122 27.9925 22.7691 28.2121C22.4162 28.4318 22.0215 28.5757 21.6101 28.6347C21.1987 28.6938 20.7794 28.6667 20.379 28.5551C19.9885 28.4464 19.6242 28.2596 19.308 28.0063L11.0058 21.686L13.4207 39.891C13.6119 39.8721 13.8042 39.8624 13.9971 39.862Z" fill="black"/>
</svg>
