<svg width="64" height="64" viewBox="0 0 64 64" fill="none" xmlns="http://www.w3.org/2000/svg">
<path fill-rule="evenodd" clip-rule="evenodd" d="M13.1967 31.1967C14.6032 29.7902 16.5109 29 18.5 29C20.4891 29 22.3968 29.7902 23.8033 31.1967C25.2098 32.6032 26 34.5109 26 36.5C26 38.4891 25.2098 40.3968 23.8033 41.8033C22.3968 43.2098 20.4891 44 18.5 44C16.5109 44 14.6032 43.2098 13.1967 41.8033C11.7902 40.3968 11 38.4891 11 36.5C11 34.5109 11.7902 32.6032 13.1967 31.1967ZM18.5 32C17.3065 32 16.1619 32.4741 15.318 33.318C14.4741 34.1619 14 35.3065 14 36.5C14 37.6935 14.4741 38.8381 15.318 39.682C16.1619 40.5259 17.3065 41 18.5 41C19.6935 41 20.8381 40.5259 21.682 39.682C22.5259 38.8381 23 37.6935 23 36.5C23 35.3065 22.5259 34.1619 21.682 33.318C20.8381 32.4741 19.6935 32 18.5 32Z" fill="black"/>
<path fill-rule="evenodd" clip-rule="evenodd" d="M18.5 47C16.5109 47 14.6032 47.7902 13.1967 49.1967C11.7902 50.6032 11 52.5109 11 54.5C11 55.3284 10.3284 56 9.5 56C8.67157 56 8 55.3284 8 54.5C8 51.7152 9.10625 49.0445 11.0754 47.0754C13.0445 45.1062 15.7152 44 18.5 44C21.2848 44 23.9555 45.1062 25.9246 47.0754C27.8938 49.0445 29 51.7152 29 54.5C29 55.3284 28.3284 56 27.5 56C26.6716 56 26 55.3284 26 54.5C26 52.5109 25.2098 50.6032 23.8033 49.1967C22.3968 47.7902 20.4891 47 18.5 47Z" fill="black"/>
<path fill-rule="evenodd" clip-rule="evenodd" d="M49.9497 32.2C50.6676 31.7867 51.5847 32.0337 51.998 32.7517C52.5715 33.748 52.9083 34.8629 52.9824 36.0102C53.0565 37.1574 52.8658 38.3064 52.4251 39.3682C51.9844 40.43 51.3055 41.3763 50.4409 42.134C49.5763 42.8917 48.549 43.4405 47.4385 43.7379C46.328 44.0354 45.164 44.0736 44.0364 43.8495C42.9088 43.6255 41.8478 43.1452 40.9353 42.4458C40.0229 41.7464 39.2835 40.8466 38.7741 39.816C38.2648 38.7853 37.9993 37.6513 37.998 36.5017C37.9971 35.6732 38.6679 35.0009 39.4963 35C40.3247 34.9991 40.9971 35.6699 40.998 36.4983C40.9988 37.1881 41.1581 37.8685 41.4637 38.4869C41.7693 39.1053 42.2129 39.6452 42.7604 40.0648C43.3079 40.4845 43.9445 40.7726 44.621 40.907C45.2976 41.0415 45.996 41.0186 46.6623 40.8401C47.3286 40.6616 47.9449 40.3324 48.4637 39.8777C48.9825 39.4231 49.3899 38.8553 49.6543 38.2182C49.9187 37.5811 50.0331 36.8918 49.9886 36.2034C49.9442 35.5151 49.7421 34.8461 49.398 34.2483C48.9847 33.5304 49.2317 32.6133 49.9497 32.2Z" fill="black"/>
<path fill-rule="evenodd" clip-rule="evenodd" d="M45.5 47C43.5109 47 41.6032 47.7902 40.1967 49.1967C38.7902 50.6032 38 52.5109 38 54.5C38 55.3284 37.3284 56 36.5 56C35.6716 56 35 55.3284 35 54.5C35 51.7152 36.1062 49.0445 38.0754 47.0754C40.0445 45.1062 42.7152 44 45.5 44C48.2848 44 50.9555 45.1062 52.9246 47.0754C54.8938 49.0445 56 51.7152 56 54.5C56 55.3284 55.3284 56 54.5 56C53.6716 56 53 55.3284 53 54.5C53 52.5109 52.2098 50.6032 50.8033 49.1967C49.3968 47.7902 47.4891 47 45.5 47Z" fill="black"/>
<path fill-rule="evenodd" clip-rule="evenodd" d="M23 9.5C23 8.67157 23.6716 8 24.5 8H48.5C49.3284 8 50 8.67157 50 9.5V27.5C50 28.3284 49.3284 29 48.5 29H40.1213L31.5607 37.5607C31.1317 37.9897 30.4865 38.118 29.926 37.8858C29.3655 37.6536 29 37.1067 29 36.5V29H24.5C23.6716 29 23 28.3284 23 27.5V9.5ZM26 11V26H30.5C31.3284 26 32 26.6716 32 27.5V32.8787L38.4393 26.4393C38.7206 26.158 39.1022 26 39.5 26H47V11H26Z" fill="black"/>
<path fill-rule="evenodd" clip-rule="evenodd" d="M29 15.5C29 14.6716 29.6716 14 30.5 14H42.5C43.3284 14 44 14.6716 44 15.5C44 16.3284 43.3284 17 42.5 17H30.5C29.6716 17 29 16.3284 29 15.5Z" fill="black"/>
<path fill-rule="evenodd" clip-rule="evenodd" d="M29 21.5C29 20.6716 29.6716 20 30.5 20H42.5C43.3284 20 44 20.6716 44 21.5C44 22.3284 43.3284 23 42.5 23H30.5C29.6716 23 29 22.3284 29 21.5Z" fill="black"/>
</svg>
