<svg width="64" height="64" viewBox="0 0 64 64" fill="none" xmlns="http://www.w3.org/2000/svg">
<path fill-rule="evenodd" clip-rule="evenodd" d="M38.8093 35.0578C38.0792 34.9417 37.3321 34.9979 36.6276 35.2219C35.9234 35.4457 35.2812 35.831 34.7523 36.3469C34.752 36.3471 34.7525 36.3467 34.7523 36.3469L33.0473 38.0159C32.4639 38.5869 31.5311 38.5867 30.9481 38.0153L29.2466 36.3477C29.2462 36.3473 29.2458 36.347 29.2454 36.3466C28.7163 35.8308 28.0741 35.4457 27.37 35.2219C26.6653 34.998 25.918 34.9417 25.1878 35.0578C24.4575 35.1738 23.7644 35.4589 23.1639 35.8902C22.5656 36.3199 22.0755 36.883 21.7325 37.5348C21.3026 38.3825 21.1546 39.3454 21.3104 40.2831C21.4666 41.2237 21.9201 42.0895 22.6045 42.7534C22.6138 42.7625 22.623 42.7717 22.6321 42.781L31.9999 52.3551L41.3657 42.7811C41.3722 42.7744 41.3787 42.7679 41.3853 42.7614C41.3879 42.7588 41.3905 42.7563 41.3932 42.7537C42.0773 42.0896 42.5305 41.2238 42.6865 40.2832C42.842 39.3453 42.6937 38.3823 42.2634 37.5346C41.9206 36.8829 41.4307 36.3198 40.8326 35.8901C40.2322 35.4588 39.5393 35.1738 38.8093 35.0578ZM43.596 36.846L44.9248 36.1501C44.3649 35.0811 43.563 34.1577 42.5829 33.4537C41.6029 32.7496 40.4719 32.2843 39.2801 32.0949C38.0883 31.9055 36.8688 31.9973 35.7188 32.3628C34.5688 32.7284 33.5201 33.3577 32.6564 34.2004L31.9986 34.8443L31.3439 34.2027L31.3414 34.2003C30.4776 33.3576 29.4288 32.7284 28.2786 32.3628C27.1285 31.9973 25.9089 31.9056 24.717 32.0949C23.5251 32.2843 22.394 32.7495 21.4138 33.4535C20.4336 34.1575 19.6315 35.0808 19.0713 36.1498L20.4 36.846L19.0636 36.1649C18.3394 37.5858 18.0896 39.2014 18.3509 40.7747C18.6111 42.3412 19.3643 43.7836 20.5007 44.8922L30.9278 55.549C31.21 55.8375 31.5965 56 32.0001 56C32.4036 56 32.7901 55.8374 33.0722 55.5489L43.4974 44.892C44.6335 43.7831 45.3863 42.3405 45.6461 40.7739C45.9069 39.2007 45.6568 37.5852 44.9323 36.1645L43.596 36.846Z" fill="black"/>
<path fill-rule="evenodd" clip-rule="evenodd" d="M41.3042 8.036C41.8062 7.95751 42.3198 8.00785 42.797 8.1823C43.2741 8.35676 43.6991 8.64961 44.032 9.03335C44.3649 9.41709 44.5949 9.87915 44.7003 10.3761C44.8054 10.8718 44.7831 11.386 44.6356 11.8707C43.2572 16.4632 43.0376 21.3103 43.9759 25.9832L48.0916 21.146C48.3989 20.7847 48.859 20.5901 49.3323 20.6212C49.8056 20.6523 50.2363 20.9054 50.4938 21.3038C53.1255 25.3756 54.5173 30.1243 54.5 34.9724C54.5453 39.0263 53.578 43.0275 51.6857 46.6131C49.7916 50.2022 47.0308 53.2612 43.654 55.5121C42.9647 55.9716 42.0334 55.7853 41.5739 55.096C41.1144 54.4067 41.3007 53.4754 41.99 53.0159C44.9509 51.0422 47.3717 48.3599 49.0325 45.2129C50.6934 42.0658 51.5416 38.5537 51.5001 34.9955L51.5 34.9719C51.5145 31.3867 50.6533 27.8629 49.0048 24.7022L44.3764 30.142C44.0211 30.5597 43.466 30.7502 42.9291 30.6387C42.3921 30.5272 41.9588 30.1315 41.799 29.6069C39.9535 23.5452 39.9411 17.0733 41.7634 11.0046L41.7646 11.0005C37.7781 11.6575 34.0063 13.2582 30.764 15.6691C27.5178 18.0829 24.8966 21.2388 23.1195 24.8729C22.9042 25.3133 22.4872 25.6207 22.0029 25.6961C21.5185 25.7716 21.0278 25.6056 20.6888 25.2516L17.074 21.4777C14.0892 25.3218 12.4685 30.0705 12.5 34.9684L12.4999 34.9955C12.4584 38.5537 13.3066 42.0658 14.9675 45.2129C16.6283 48.3599 19.0491 51.0422 22.01 53.0159C22.6993 53.4754 22.8856 54.4067 22.4261 55.096C21.9666 55.7853 21.0353 55.9716 20.346 55.5121C16.9692 53.2612 14.2084 50.2022 12.3143 46.6131C10.4223 43.028 9.45496 39.0274 9.49994 34.9741C9.46364 28.7902 11.7418 22.8162 15.8868 18.2266C16.1661 17.9174 16.5614 17.7383 16.978 17.7322C17.3946 17.726 17.795 17.8935 18.0832 18.1944L21.4271 21.6854C23.3476 18.4053 25.9122 15.5384 28.9739 13.2617C32.6045 10.5621 36.8285 8.77091 41.2929 8.03781L41.3042 8.036Z" fill="black"/>
</svg>
