<svg width="64" height="64" viewBox="0 0 64 64" fill="none" xmlns="http://www.w3.org/2000/svg">
<path d="M27.5 15.5H18.5C17.7044 15.5 16.9413 15.8161 16.3787 16.3787C15.8161 16.9413 15.5 17.7044 15.5 18.5V51.5C15.5 52.2956 15.8161 53.0587 16.3787 53.6213C16.9413 54.1839 17.7044 54.5 18.5 54.5H45.5C46.2956 54.5 47.0587 54.1839 47.6213 53.6213C48.1839 53.0587 48.5 52.2956 48.5 51.5V18.5C48.5 17.7044 48.1839 16.9413 47.6213 16.3787C47.0587 15.8161 46.2956 15.5 45.5 15.5H36.5M44 54.5C43.6093 51.5944 42.1776 48.9293 39.9708 46.9993C37.7639 45.0693 34.9317 44.0056 32 44.0056C29.0683 44.0056 26.2361 45.0693 24.0292 46.9993C21.8224 48.9293 20.3907 51.5944 20 54.5M36.5 14C36.5 12.8065 36.0259 11.6619 35.182 10.818C34.3381 9.97411 33.1935 9.5 32 9.5C30.8065 9.5 29.6619 9.97411 28.818 10.818C27.9741 11.6619 27.5 12.8065 27.5 14V20C27.5 20.3978 27.658 20.7794 27.9393 21.0607C28.2206 21.342 28.6022 21.5 29 21.5H35C35.3978 21.5 35.7794 21.342 36.0607 21.0607C36.342 20.7794 36.5 20.3978 36.5 20V14ZM25.25 34.25C25.25 36.0402 25.9612 37.7571 27.227 39.023C28.4929 40.2888 30.2098 41 32 41C33.7902 41 35.5071 40.2888 36.773 39.023C38.0388 37.7571 38.75 36.0402 38.75 34.25C38.75 32.4598 38.0388 30.7429 36.773 29.477C35.5071 28.2112 33.7902 27.5 32 27.5C30.2098 27.5 28.4929 28.2112 27.227 29.477C25.9612 30.7429 25.25 32.4598 25.25 34.25Z" stroke="black" stroke-width="3" stroke-linecap="round" stroke-linejoin="round"/>
</svg>
