<svg width="64" height="64" viewBox="0 0 64 64" fill="none" xmlns="http://www.w3.org/2000/svg">
<path d="M26.25 16.336C26.25 17.7284 26.8031 19.0637 27.7877 20.0483C28.7723 21.0329 30.1076 21.586 31.5 21.586C32.8924 21.586 34.2277 21.0329 35.2123 20.0483C36.1969 19.0637 36.75 17.7284 36.75 16.336C36.75 14.9436 36.1969 13.6083 35.2123 12.6237C34.2277 11.6391 32.8924 11.086 31.5 11.086C30.1076 11.086 28.7723 11.6391 27.7877 12.6237C26.8031 13.6083 26.25 14.9436 26.25 16.336Z" stroke="black" stroke-width="3" stroke-linecap="round" stroke-linejoin="round"/>
<path d="M46.5 50.086C46.5 50.8817 46.1839 51.6447 45.6213 52.2073C45.0587 52.7699 44.2956 53.086 43.5 53.086H25.5C24.8503 53.0866 24.2179 52.8763 23.6979 52.4867C23.178 52.097 22.7986 51.5491 22.6168 50.9253C22.435 50.3015 22.4607 49.6355 22.6899 49.0276C22.9192 48.4196 23.3396 47.9025 23.888 47.554L38.334 38.354L36.064 32.294L31.008 35.894C29.775 36.7699 28.2573 37.1491 26.7572 36.956C25.2572 36.7628 23.8849 36.0116 22.914 34.852L17.2 28C16.9201 27.702 16.7041 27.3499 16.5652 26.9653C16.4263 26.5808 16.3674 26.1719 16.3923 25.7638C16.4171 25.3557 16.5251 24.957 16.7097 24.5921C16.8942 24.2273 17.1514 23.904 17.4654 23.6422C17.7794 23.3803 18.1436 23.1854 18.5357 23.0694C18.9277 22.9534 19.3394 22.9188 19.7453 22.9677C20.1512 23.0166 20.5429 23.1479 20.8962 23.3536C21.2496 23.5593 21.5571 23.8351 21.8 24.164L27.518 31.024L35.75 25.144C36.1252 24.8766 36.557 24.6992 37.0118 24.6256C37.4666 24.552 37.9323 24.5841 38.3727 24.7195C38.8131 24.8549 39.2164 25.0899 39.5513 25.4063C39.8863 25.7227 40.1438 26.112 40.304 26.544L43.948 36.264C44.4259 37.5536 44.4485 38.9679 44.0119 40.2721C43.5754 41.5763 42.706 42.692 41.548 43.434L35.8 47.086H43.5C44.2956 47.086 45.0587 47.4021 45.6213 47.9647C46.1839 48.5273 46.5 49.2904 46.5 50.086Z" stroke="black" stroke-width="3" stroke-linecap="round" stroke-linejoin="round"/>
</svg>
