<svg width="64" height="64" viewBox="0 0 64 64" fill="none" xmlns="http://www.w3.org/2000/svg">
<path d="M21.5 19.25C21.5 18.5083 21.7199 17.7833 22.132 17.1666C22.544 16.5499 23.1297 16.0693 23.8149 15.7855C24.5002 15.5016 25.2542 15.4274 25.9816 15.5721C26.709 15.7168 27.3772 16.0739 27.9017 16.5984C28.4261 17.1228 28.7832 17.791 28.9279 18.5184C29.0726 19.2458 28.9984 19.9998 28.7145 20.6851C28.4307 21.3703 27.9501 21.956 27.3334 22.368C26.7167 22.7801 25.9917 23 25.25 23M42.5 21.5V12.5C42.5 11.7044 42.1839 10.9413 41.6213 10.3787C41.0587 9.81607 40.2956 9.5 39.5 9.5H12.5C11.7044 9.5 10.9413 9.81607 10.3787 10.3787C9.81607 10.9413 9.5 11.7044 9.5 12.5V33.5C9.5 34.2956 9.81607 35.0587 10.3787 35.6213C10.9413 36.1839 11.7044 36.5 12.5 36.5H18.5V45.5L24.5 41M42.5 33.5V39.5M25.25 27.5C25.1017 27.5 24.9567 27.544 24.8333 27.6264C24.71 27.7088 24.6139 27.8259 24.5571 27.963C24.5003 28.1 24.4855 28.2508 24.5144 28.3963C24.5434 28.5418 24.6148 28.6754 24.7197 28.7803C24.8246 28.8852 24.9582 28.9566 25.1037 28.9856C25.2492 29.0145 25.4 28.9997 25.537 28.9429C25.6741 28.8861 25.7912 28.79 25.8736 28.6667C25.956 28.5433 26 28.3983 26 28.25C26 28.0511 25.921 27.8603 25.7803 27.7197C25.6397 27.579 25.4489 27.5 25.25 27.5ZM54.5 45.5H48.5V54.5L39.5 45.5H30.5V27.5H54.5V45.5Z" stroke="black" stroke-width="3" stroke-linecap="round" stroke-linejoin="round"/>
</svg>
