<svg width="64" height="64" viewBox="0 0 64 64" fill="none" xmlns="http://www.w3.org/2000/svg">
<path d="M18 46.502V48.502C17.9837 48.8842 18.0889 49.2618 18.3005 49.5806C18.5122 49.8993 18.8194 50.1428 19.178 50.276L33 54.502M33 54.502V36.836M33 54.502L46.85 50.288C47.2092 50.1557 47.5168 49.9124 47.7283 49.5934C47.9398 49.2744 48.044 48.8963 48.026 48.514V46.2M33 36.836L20.054 32.09C19.7976 32.0202 19.5282 32.0141 19.2689 32.072C19.0096 32.1299 18.7683 32.2501 18.566 32.4223C18.3637 32.5945 18.2064 32.8134 18.1078 33.0601C18.0091 33.3068 17.9721 33.5738 18 33.838V37.526M33 36.836L45.972 32.09C46.2284 32.0202 46.4978 32.0141 46.7571 32.072C47.0164 32.1299 47.2577 32.2501 47.46 32.4223C47.6623 32.5945 47.8196 32.8134 47.9182 33.0601C48.0169 33.3068 48.0539 33.5738 48.026 33.838V37.814M20.974 44.716C20.974 45.716 19.848 46.516 18.472 46.502C15.716 46.49 13.49 44.87 13.5 42.882V41.082C13.5 39.096 15.75 37.496 18.5 37.508C19.878 37.508 20.99 38.324 20.986 39.308L20.974 44.716ZM43.514 44.716C43.514 45.716 44.64 46.516 46.02 46.502C48.78 46.49 51.01 44.87 51 42.882V41.082C51 39.096 48.746 37.496 45.986 37.508C44.608 37.508 43.492 38.324 43.498 39.308L43.514 44.716ZM24.774 17.752C24.774 18.8354 24.9874 19.9082 25.402 20.9091C25.8166 21.9101 26.4243 22.8195 27.1904 23.5856C27.9565 24.3517 28.8659 24.9594 29.8669 25.374C30.8678 25.7886 31.9406 26.002 33.024 26.002C34.1074 26.002 35.1802 25.7886 36.1811 25.374C37.1821 24.9594 38.0915 24.3517 38.8576 23.5856C39.6237 22.8195 40.2314 21.9101 40.646 20.9091C41.0606 19.9082 41.274 18.8354 41.274 17.752C41.274 16.6686 41.0606 15.5958 40.646 14.5949C40.2314 13.5939 39.6237 12.6845 38.8576 11.9184C38.0915 11.1523 37.1821 10.5446 36.1811 10.13C35.1802 9.71539 34.1074 9.502 33.024 9.502C31.9406 9.502 30.8678 9.71539 29.8669 10.13C28.8659 10.5446 27.9565 11.1523 27.1904 11.9184C26.4243 12.6845 25.8166 13.5939 25.402 14.5949C24.9874 15.5958 24.774 16.6686 24.774 17.752Z" stroke="black" stroke-width="3" stroke-linecap="round" stroke-linejoin="round"/>
</svg>
