<svg width="64" height="64" viewBox="0 0 64 64" fill="none" xmlns="http://www.w3.org/2000/svg">
<path d="M42.5 18.498V12.498C42.5011 12.035 42.395 11.578 42.1901 11.1628C41.9851 10.7477 41.6869 10.3856 41.3186 10.1049C40.9504 9.82422 40.5222 9.63258 40.0676 9.54499C39.6129 9.4574 39.1442 9.47623 38.698 9.6L17.698 15.44C17.055 15.6515 16.4956 16.0615 16.1003 16.611C15.705 17.1604 15.4941 17.8211 15.498 18.498M24.5 48.498H39.5M15.5 51.498C15.5 52.2937 15.8161 53.0567 16.3787 53.6193C16.9413 54.1819 17.7044 54.498 18.5 54.498H45.5C46.2957 54.498 47.0587 54.1819 47.6213 53.6193C48.1839 53.0567 48.5 52.2937 48.5 51.498V21.486C48.5 20.6904 48.1839 19.9273 47.6213 19.3647C47.0587 18.8021 46.2957 18.486 45.5 18.486L15.5 18.498V51.498ZM33.062 25.144L35.558 30.058H39.812C40.0457 30.0533 40.2755 30.119 40.4714 30.2465C40.6674 30.3741 40.8205 30.5575 40.9108 30.7732C41.0011 30.9888 41.0246 31.2266 40.9781 31.4557C40.9316 31.6848 40.8173 31.8947 40.65 32.058L36.744 35.902L38.908 40.872C39.0027 41.0995 39.0237 41.351 38.9679 41.5911C38.9122 41.8312 38.7826 42.0477 38.5973 42.2102C38.412 42.3727 38.1804 42.4731 37.9352 42.4971C37.6899 42.5211 37.4433 42.4675 37.23 42.344L32 39.4L26.77 42.34C26.5568 42.4635 26.3101 42.5171 26.0648 42.4931C25.8196 42.4691 25.588 42.3687 25.4027 42.2062C25.2175 42.0437 25.0878 41.8272 25.0321 41.5871C24.9764 41.347 24.9973 41.0955 25.092 40.868L27.256 35.898L23.35 32.052C23.1827 31.8887 23.0684 31.6788 23.0219 31.4497C22.9754 31.2206 22.9989 30.9828 23.0892 30.7672C23.1796 30.5515 23.3326 30.3681 23.5286 30.2405C23.7245 30.113 23.9543 30.0473 24.188 30.052H28.442L30.94 25.144C31.042 24.951 31.1947 24.7895 31.3816 24.6768C31.5686 24.5641 31.7827 24.5046 32.001 24.5046C32.2193 24.5046 32.4334 24.5641 32.6204 24.6768C32.8073 24.7895 32.96 24.951 33.062 25.144Z" stroke="black" stroke-width="3" stroke-linecap="round" stroke-linejoin="round"/>
</svg>
