<svg width="940" height="489" viewBox="0 0 940 489" fill="none" xmlns="http://www.w3.org/2000/svg">
<path d="M438 192C440.209 192 442 193.791 442 196L442 204C442 206.209 440.209 208 438 208L386 208C383.791 208 382 206.209 382 204L382 196C382 193.791 383.791 192 386 192L438 192Z" fill="#FFA217"/>
<path d="M554 192C556.209 192 558 193.791 558 196L558 204C558 206.209 556.209 208 554 208L502 208C499.791 208 498 206.209 498 204L498 196C498 193.791 499.791 192 502 192L554 192Z" fill="#777777"/>
<path d="M554 84C556.209 84 558 85.7909 558 88L558 96C558 98.2091 556.209 100 554 100L502 100C499.791 100 498 98.2091 498 96L498 88C498 85.7909 499.791 84 502 84L554 84Z" fill="#F5E411"/>
<path d="M438 84C440.209 84 442 85.7909 442 88L442 96C442 98.2091 440.209 100 438 100L386 100C383.791 100 382 98.2091 382 96L382 88C382 85.7909 383.791 84 386 84L438 84Z" fill="#4FBB7D"/>
<path d="M438 220C440.209 220 442 221.791 442 224L442 232C442 234.209 440.209 236 438 236L386 236C383.791 236 382 234.209 382 232L382 224C382 221.791 383.791 220 386 220L438 220Z" fill="#F10B7A"/>
<path d="M554 220C556.209 220 558 221.791 558 224L558 232C558 234.209 556.209 236 554 236L502 236C499.791 236 498 234.209 498 232L498 224C498 221.791 499.791 220 502 220L554 220Z" fill="#4FBB7D"/>
<path d="M554 112C556.209 112 558 113.791 558 116L558 124C558 126.209 556.209 128 554 128L502 128C499.791 128 498 126.209 498 124L498 116C498 113.791 499.791 112 502 112L554 112Z" fill="#8438B7"/>
<path d="M438 112C440.209 112 442 113.791 442 116L442 124C442 126.209 440.209 128 438 128L386 128C383.791 128 382 126.209 382 124L382 116C382 113.791 383.791 112 386 112L438 112Z" fill="#E14430"/>
<path fill-rule="evenodd" clip-rule="evenodd" d="M458 64C455.791 64 454 65.7909 454 68V144H378C375.791 144 374 145.791 374 148L374 172C374 174.209 375.791 176 378 176H454V252C454 254.209 455.791 256 458 256H482C484.209 256 486 254.209 486 252V176L562 176C564.209 176 566 174.209 566 172V148C566 145.791 564.209 144 562 144L486 144V68C486 65.7909 484.209 64 482 64H458Z" fill="#016FD6"/>
<path d="M70.9904 315.264V324.58H58.3424V363H46.7144V324.58H34.0664V315.264H70.9904Z" fill="#222222"/>
<path d="M116.81 315.264V363H105.182V343.348H87.0942V363H75.4662V315.264H87.0942V333.964H105.182V315.264H116.81Z" fill="#222222"/>
<path d="M135.472 324.58V334.236H151.044V343.212H135.472V353.684H153.084V363H123.844V315.264H153.084V324.58H135.472Z" fill="#222222"/>
<path d="M204.012 330.36C203.15 328.773 201.904 327.572 200.272 326.756C198.685 325.895 196.804 325.464 194.628 325.464C190.865 325.464 187.85 326.711 185.584 329.204C183.317 331.652 182.184 334.939 182.184 339.064C182.184 343.461 183.362 346.907 185.72 349.4C188.122 351.848 191.409 353.072 195.58 353.072C198.436 353.072 200.838 352.347 202.788 350.896C204.782 349.445 206.233 347.36 207.14 344.64H192.384V336.072H217.68V346.884C216.818 349.785 215.345 352.483 213.26 354.976C211.22 357.469 208.613 359.487 205.44 361.028C202.266 362.569 198.685 363.34 194.696 363.34C189.981 363.34 185.765 362.32 182.048 360.28C178.376 358.195 175.497 355.316 173.412 351.644C171.372 347.972 170.352 343.779 170.352 339.064C170.352 334.349 171.372 330.156 173.412 326.484C175.497 322.767 178.376 319.888 182.048 317.848C185.72 315.763 189.913 314.72 194.628 314.72C200.34 314.72 205.145 316.103 209.044 318.868C212.988 321.633 215.594 325.464 216.864 330.36H204.012Z" fill="#222222"/>
<path d="M247.105 363L237.177 344.98H234.389V363H222.761V315.264H242.277C246.039 315.264 249.235 315.921 251.865 317.236C254.539 318.551 256.534 320.364 257.849 322.676C259.163 324.943 259.821 327.481 259.821 330.292C259.821 333.465 258.914 336.299 257.101 338.792C255.333 341.285 252.703 343.053 249.213 344.096L260.229 363H247.105ZM234.389 336.752H241.597C243.727 336.752 245.314 336.231 246.357 335.188C247.445 334.145 247.989 332.672 247.989 330.768C247.989 328.955 247.445 327.527 246.357 326.484C245.314 325.441 243.727 324.92 241.597 324.92H234.389V336.752Z" fill="#222222"/>
<path d="M277.388 324.58V334.236H292.96V343.212H277.388V353.684H295V363H265.76V315.264H295V324.58H277.388Z" fill="#222222"/>
<path d="M330.905 354.568H313.089L310.233 363H298.061L315.333 315.264H328.797L346.069 363H333.761L330.905 354.568ZM327.913 345.592L321.997 328.116L316.149 345.592H327.913Z" fill="#222222"/>
<path d="M384.306 315.264V324.58H371.658V363H360.03V324.58H347.382V315.264H384.306Z" fill="#222222"/>
<path d="M400.41 324.58V334.236H415.982V343.212H400.41V353.684H418.022V363H388.782V315.264H418.022V324.58H400.41Z" fill="#222222"/>
<path d="M441.483 363.476C437.992 363.476 434.864 362.909 432.099 361.776C429.333 360.643 427.112 358.965 425.435 356.744C423.803 354.523 422.941 351.848 422.851 348.72H435.227C435.408 350.488 436.02 351.848 437.063 352.8C438.105 353.707 439.465 354.16 441.143 354.16C442.865 354.16 444.225 353.775 445.223 353.004C446.22 352.188 446.719 351.077 446.719 349.672C446.719 348.493 446.311 347.519 445.495 346.748C444.724 345.977 443.749 345.343 442.571 344.844C441.437 344.345 439.805 343.779 437.675 343.144C434.592 342.192 432.076 341.24 430.127 340.288C428.177 339.336 426.5 337.931 425.095 336.072C423.689 334.213 422.987 331.788 422.987 328.796C422.987 324.353 424.596 320.885 427.815 318.392C431.033 315.853 435.227 314.584 440.395 314.584C445.653 314.584 449.892 315.853 453.111 318.392C456.329 320.885 458.052 324.376 458.279 328.864H445.699C445.608 327.323 445.041 326.121 443.999 325.26C442.956 324.353 441.619 323.9 439.987 323.9C438.581 323.9 437.448 324.285 436.587 325.056C435.725 325.781 435.295 326.847 435.295 328.252C435.295 329.793 436.02 330.995 437.471 331.856C438.921 332.717 441.188 333.647 444.271 334.644C447.353 335.687 449.847 336.684 451.751 337.636C453.7 338.588 455.377 339.971 456.783 341.784C458.188 343.597 458.891 345.932 458.891 348.788C458.891 351.508 458.188 353.979 456.783 356.2C455.423 358.421 453.428 360.189 450.799 361.504C448.169 362.819 445.064 363.476 441.483 363.476Z" fill="#222222"/>
<path d="M499.027 315.264V324.58H486.379V363H474.751V324.58H462.103V315.264H499.027Z" fill="#222222"/>
<path d="M533.824 363.476C530.334 363.476 527.206 362.909 524.44 361.776C521.675 360.643 519.454 358.965 517.776 356.744C516.144 354.523 515.283 351.848 515.192 348.72H527.568C527.75 350.488 528.362 351.848 529.404 352.8C530.447 353.707 531.807 354.16 533.484 354.16C535.207 354.16 536.567 353.775 537.564 353.004C538.562 352.188 539.06 351.077 539.06 349.672C539.06 348.493 538.652 347.519 537.836 346.748C537.066 345.977 536.091 345.343 534.912 344.844C533.779 344.345 532.147 343.779 530.016 343.144C526.934 342.192 524.418 341.24 522.468 340.288C520.519 339.336 518.842 337.931 517.436 336.072C516.031 334.213 515.328 331.788 515.328 328.796C515.328 324.353 516.938 320.885 520.156 318.392C523.375 315.853 527.568 314.584 532.736 314.584C537.995 314.584 542.234 315.853 545.452 318.392C548.671 320.885 550.394 324.376 550.62 328.864H538.04C537.95 327.323 537.383 326.121 536.34 325.26C535.298 324.353 533.96 323.9 532.328 323.9C530.923 323.9 529.79 324.285 528.928 325.056C528.067 325.781 527.636 326.847 527.636 328.252C527.636 329.793 528.362 330.995 529.812 331.856C531.263 332.717 533.53 333.647 536.612 334.644C539.695 335.687 542.188 336.684 544.092 337.636C546.042 338.588 547.719 339.971 549.124 341.784C550.53 343.597 551.232 345.932 551.232 348.788C551.232 351.508 550.53 353.979 549.124 356.2C547.764 358.421 545.77 360.189 543.14 361.504C540.511 362.819 537.406 363.476 533.824 363.476Z" fill="#222222"/>
<path d="M591.368 315.264V324.58H578.72V363H567.092V324.58H554.444V315.264H591.368Z" fill="#222222"/>
<path d="M618.42 363.476C613.932 363.476 609.807 362.433 606.044 360.348C602.327 358.263 599.357 355.361 597.136 351.644C594.96 347.881 593.872 343.665 593.872 338.996C593.872 334.327 594.96 330.133 597.136 326.416C599.357 322.699 602.327 319.797 606.044 317.712C609.807 315.627 613.932 314.584 618.42 314.584C622.908 314.584 627.011 315.627 630.728 317.712C634.491 319.797 637.437 322.699 639.568 326.416C641.744 330.133 642.832 334.327 642.832 338.996C642.832 343.665 641.744 347.881 639.568 351.644C637.392 355.361 634.445 358.263 630.728 360.348C627.011 362.433 622.908 363.476 618.42 363.476ZM618.42 352.868C622.228 352.868 625.265 351.599 627.532 349.06C629.844 346.521 631 343.167 631 338.996C631 334.78 629.844 331.425 627.532 328.932C625.265 326.393 622.228 325.124 618.42 325.124C614.567 325.124 611.484 326.371 609.172 328.864C606.905 331.357 605.772 334.735 605.772 338.996C605.772 343.212 606.905 346.589 609.172 349.128C611.484 351.621 614.567 352.868 618.42 352.868Z" fill="#222222"/>
<path d="M672.285 363L662.357 344.98H659.569V363H647.941V315.264H667.457C671.22 315.264 674.416 315.921 677.045 317.236C679.72 318.551 681.715 320.364 683.029 322.676C684.344 324.943 685.001 327.481 685.001 330.292C685.001 333.465 684.095 336.299 682.281 338.792C680.513 341.285 677.884 343.053 674.393 344.096L685.409 363H672.285ZM659.569 336.752H666.777C668.908 336.752 670.495 336.231 671.537 335.188C672.625 334.145 673.169 332.672 673.169 330.768C673.169 328.955 672.625 327.527 671.537 326.484C670.495 325.441 668.908 324.92 666.777 324.92H659.569V336.752Z" fill="#222222"/>
<path d="M731.877 315.264L715.353 347.224V363H703.725V347.224L687.201 315.264H700.393L709.641 335.256L718.821 315.264H731.877Z" fill="#222222"/>
<path d="M759.88 324.58V334.236H775.452V343.212H759.88V353.684H777.492V363H748.252V315.264H777.492V324.58H759.88Z" fill="#222222"/>
<path d="M828.493 315.264L811.561 363H797.009L780.077 315.264H792.453L804.285 351.304L816.185 315.264H828.493Z" fill="#222222"/>
<path d="M843.621 324.58V334.236H859.193V343.212H843.621V353.684H861.233V363H831.993V315.264H861.233V324.58H843.621Z" fill="#222222"/>
<path d="M891.766 363L881.838 344.98H879.05V363H867.422V315.264H886.938C890.701 315.264 893.897 315.921 896.526 317.236C899.201 318.551 901.195 320.364 902.51 322.676C903.825 324.943 904.482 327.481 904.482 330.292C904.482 333.465 903.575 336.299 901.762 338.792C899.994 341.285 897.365 343.053 893.874 344.096L904.89 363H891.766ZM879.05 336.752H886.258C888.389 336.752 889.975 336.231 891.018 335.188C892.106 334.145 892.65 332.672 892.65 330.768C892.65 328.955 892.106 327.527 891.018 326.484C889.975 325.441 888.389 324.92 886.258 324.92H879.05V336.752Z" fill="#222222"/>
<path d="M256.462 402.749V405.591H241.37V418.38H254.11V421.222H241.37V437H237.94V402.749H256.462Z" fill="#222222"/>
<path d="M260.537 423.574C260.537 420.83 261.076 418.429 262.154 416.371C263.265 414.28 264.784 412.68 266.711 411.569C268.671 410.426 270.876 409.854 273.326 409.854C275.874 409.854 278.063 410.442 279.892 411.618C281.754 412.794 283.093 414.297 283.91 416.126V410.246H287.34V437H283.91V431.071C283.061 432.9 281.705 434.419 279.843 435.628C278.014 436.804 275.825 437.392 273.277 437.392C270.86 437.392 268.671 436.82 266.711 435.677C264.784 434.534 263.265 432.917 262.154 430.826C261.076 428.735 260.537 426.318 260.537 423.574ZM283.91 423.623C283.91 421.467 283.469 419.572 282.587 417.939C281.705 416.306 280.496 415.048 278.961 414.166C277.458 413.284 275.792 412.843 273.963 412.843C272.068 412.843 270.37 413.268 268.867 414.117C267.364 414.966 266.172 416.208 265.29 417.841C264.441 419.442 264.016 421.353 264.016 423.574C264.016 425.763 264.441 427.69 265.29 429.356C266.172 430.989 267.364 432.247 268.867 433.129C270.37 433.978 272.068 434.403 273.963 434.403C275.792 434.403 277.458 433.962 278.961 433.08C280.496 432.198 281.705 430.94 282.587 429.307C283.469 427.674 283.91 425.779 283.91 423.623Z" fill="#222222"/>
<path d="M327.02 409.756C330.156 409.756 332.704 410.752 334.664 412.745C336.657 414.705 337.653 417.563 337.653 421.32V437H334.272V421.712C334.272 418.805 333.57 416.583 332.165 415.048C330.761 413.513 328.85 412.745 326.432 412.745C323.917 412.745 321.908 413.578 320.405 415.244C318.903 416.91 318.151 419.327 318.151 422.496V437H314.77V421.712C314.77 418.805 314.068 416.583 312.663 415.048C311.259 413.513 309.331 412.745 306.881 412.745C304.366 412.745 302.357 413.578 300.854 415.244C299.352 416.91 298.6 419.327 298.6 422.496V437H295.17V410.246H298.6V414.852C299.45 413.186 300.658 411.928 302.226 411.079C303.794 410.197 305.542 409.756 307.469 409.756C309.789 409.756 311.814 410.311 313.545 411.422C315.309 412.533 316.583 414.166 317.367 416.322C318.086 414.199 319.311 412.582 321.042 411.471C322.806 410.328 324.799 409.756 327.02 409.756Z" fill="#222222"/>
<path d="M346.986 405.199C346.3 405.199 345.712 404.954 345.222 404.464C344.732 403.974 344.487 403.37 344.487 402.651C344.487 401.932 344.732 401.344 345.222 400.887C345.712 400.397 346.3 400.152 346.986 400.152C347.672 400.152 348.26 400.397 348.75 400.887C349.24 401.344 349.485 401.932 349.485 402.651C349.485 403.37 349.24 403.974 348.75 404.464C348.26 404.954 347.672 405.199 346.986 405.199ZM348.701 410.246V437H345.271V410.246H348.701Z" fill="#222222"/>
<path d="M359.898 400.74V437H356.468V400.74H359.898Z" fill="#222222"/>
<path d="M389.715 410.246L373.839 449.593H370.262L375.456 436.853L364.48 410.246H368.253L377.367 433.08L386.187 410.246H389.715Z" fill="#222222"/>
<path d="M423.836 419.311C425.763 419.67 427.397 420.65 428.736 422.251C430.075 423.852 430.745 425.714 430.745 427.837C430.745 429.568 430.304 431.136 429.422 432.541C428.573 433.913 427.315 435.007 425.649 435.824C423.983 436.608 421.99 437 419.671 437H407.813V402.749H419.328C422.791 402.749 425.42 403.549 427.217 405.15C429.046 406.751 429.961 408.825 429.961 411.373C429.961 413.496 429.389 415.228 428.246 416.567C427.103 417.874 425.633 418.788 423.836 419.311ZM411.243 417.89H419.23C421.549 417.89 423.33 417.351 424.571 416.273C425.845 415.162 426.482 413.643 426.482 411.716C426.482 409.821 425.845 408.335 424.571 407.257C423.33 406.179 421.5 405.64 419.083 405.64H411.243V417.89ZM419.426 434.109C421.909 434.109 423.836 433.521 425.208 432.345C426.613 431.169 427.315 429.552 427.315 427.494C427.315 425.436 426.58 423.803 425.11 422.594C423.673 421.353 421.729 420.732 419.279 420.732H411.243V434.109H419.426Z" fill="#222222"/>
<path d="M438.765 405.199C438.079 405.199 437.491 404.954 437.001 404.464C436.511 403.974 436.266 403.37 436.266 402.651C436.266 401.932 436.511 401.344 437.001 400.887C437.491 400.397 438.079 400.152 438.765 400.152C439.451 400.152 440.039 400.397 440.529 400.887C441.019 401.344 441.264 401.932 441.264 402.651C441.264 403.37 441.019 403.974 440.529 404.464C440.039 404.954 439.451 405.199 438.765 405.199ZM440.48 410.246V437H437.05V410.246H440.48Z" fill="#222222"/>
<path d="M451.628 416.175C452.51 414.313 453.866 412.794 455.695 411.618C457.557 410.442 459.746 409.854 462.261 409.854C464.711 409.854 466.9 410.426 468.827 411.569C470.755 412.68 472.257 414.28 473.335 416.371C474.446 418.429 475.001 420.83 475.001 423.574C475.001 426.318 474.446 428.735 473.335 430.826C472.257 432.917 470.738 434.534 468.778 435.677C466.851 436.82 464.679 437.392 462.261 437.392C459.713 437.392 457.508 436.82 455.646 435.677C453.817 434.501 452.478 432.982 451.628 431.12V437H448.247V400.74H451.628V416.175ZM471.522 423.574C471.522 421.353 471.081 419.442 470.199 417.841C469.35 416.208 468.174 414.966 466.671 414.117C465.169 413.268 463.47 412.843 461.575 412.843C459.746 412.843 458.064 413.284 456.528 414.166C455.026 415.048 453.833 416.306 452.951 417.939C452.069 419.572 451.628 421.467 451.628 423.623C451.628 425.779 452.069 427.674 452.951 429.307C453.833 430.94 455.026 432.198 456.528 433.08C458.064 433.962 459.746 434.403 461.575 434.403C463.47 434.403 465.169 433.978 466.671 433.129C468.174 432.247 469.35 430.989 470.199 429.356C471.081 427.69 471.522 425.763 471.522 423.574Z" fill="#222222"/>
<path d="M484.743 400.74V437H481.313V400.74H484.743Z" fill="#222222"/>
<path d="M516.716 422.251C516.716 423.427 516.684 424.325 516.618 424.946H494.421C494.519 426.971 495.009 428.703 495.891 430.14C496.773 431.577 497.933 432.672 499.37 433.423C500.807 434.142 502.375 434.501 504.074 434.501C506.296 434.501 508.158 433.962 509.66 432.884C511.195 431.806 512.208 430.352 512.698 428.523H516.324C515.671 431.136 514.266 433.276 512.11 434.942C509.987 436.575 507.308 437.392 504.074 437.392C501.559 437.392 499.305 436.837 497.312 435.726C495.319 434.583 493.751 432.982 492.608 430.924C491.497 428.833 490.942 426.4 490.942 423.623C490.942 420.846 491.497 418.413 492.608 416.322C493.719 414.231 495.27 412.631 497.263 411.52C499.256 410.409 501.526 409.854 504.074 409.854C506.622 409.854 508.844 410.409 510.738 411.52C512.665 412.631 514.135 414.133 515.148 416.028C516.193 417.89 516.716 419.964 516.716 422.251ZM513.237 422.153C513.27 420.16 512.861 418.462 512.012 417.057C511.195 415.652 510.069 414.591 508.631 413.872C507.194 413.153 505.626 412.794 503.927 412.794C501.379 412.794 499.207 413.611 497.41 415.244C495.613 416.877 494.617 419.18 494.421 422.153H513.237Z" fill="#222222"/>
<path d="M534.87 419.85C534.87 416.485 535.605 413.48 537.075 410.834C538.545 408.155 540.554 406.081 543.102 404.611C545.65 403.108 548.492 402.357 551.628 402.357C555.45 402.357 558.717 403.272 561.428 405.101C564.172 406.898 566.165 409.446 567.406 412.745H563.388C562.408 410.426 560.905 408.613 558.88 407.306C556.887 405.999 554.47 405.346 551.628 405.346C549.113 405.346 546.842 405.934 544.817 407.11C542.824 408.286 541.256 409.985 540.113 412.206C538.97 414.395 538.398 416.943 538.398 419.85C538.398 422.757 538.97 425.305 540.113 427.494C541.256 429.683 542.824 431.365 544.817 432.541C546.842 433.717 549.113 434.305 551.628 434.305C554.47 434.305 556.887 433.668 558.88 432.394C560.905 431.087 562.408 429.291 563.388 427.004H567.406C566.165 430.271 564.172 432.802 561.428 434.599C558.684 436.396 555.417 437.294 551.628 437.294C548.492 437.294 545.65 436.559 543.102 435.089C540.554 433.586 538.545 431.512 537.075 428.866C535.605 426.22 534.87 423.215 534.87 419.85Z" fill="#222222"/>
<path d="M585.952 437.392C583.436 437.392 581.166 436.837 579.141 435.726C577.148 434.583 575.564 432.982 574.388 430.924C573.244 428.833 572.673 426.4 572.673 423.623C572.673 420.846 573.261 418.429 574.437 416.371C575.613 414.28 577.213 412.68 579.239 411.569C581.264 410.426 583.534 409.854 586.05 409.854C588.565 409.854 590.835 410.426 592.861 411.569C594.919 412.68 596.519 414.28 597.663 416.371C598.839 418.429 599.427 420.846 599.427 423.623C599.427 426.367 598.839 428.784 597.663 430.875C596.487 432.966 594.87 434.583 592.812 435.726C590.754 436.837 588.467 437.392 585.952 437.392ZM585.952 434.403C587.716 434.403 589.349 434.011 590.852 433.227C592.354 432.41 593.563 431.202 594.478 429.601C595.425 427.968 595.899 425.975 595.899 423.623C595.899 421.271 595.441 419.295 594.527 417.694C593.612 416.061 592.403 414.852 590.901 414.068C589.398 413.251 587.765 412.843 586.001 412.843C584.237 412.843 582.603 413.251 581.101 414.068C579.598 414.852 578.389 416.061 577.475 417.694C576.593 419.295 576.152 421.271 576.152 423.623C576.152 425.975 576.593 427.968 577.475 429.601C578.389 431.202 579.582 432.41 581.052 433.227C582.554 434.011 584.188 434.403 585.952 434.403Z" fill="#222222"/>
<path d="M628.856 410.246V437H625.426V432.296C624.642 433.962 623.433 435.236 621.8 436.118C620.167 437 618.337 437.441 616.312 437.441C613.111 437.441 610.497 436.461 608.472 434.501C606.447 432.508 605.434 429.634 605.434 425.877V410.246H608.815V425.485C608.815 428.392 609.534 430.614 610.971 432.149C612.441 433.684 614.434 434.452 616.949 434.452C619.53 434.452 621.588 433.635 623.123 432.002C624.658 430.369 625.426 427.968 625.426 424.799V410.246H628.856Z" fill="#222222"/>
<path d="M640.117 414.999C640.868 413.333 642.012 412.043 643.547 411.128C645.115 410.213 647.026 409.756 649.28 409.756V413.333H648.349C645.866 413.333 643.874 414.003 642.371 415.342C640.868 416.681 640.117 418.919 640.117 422.055V437H636.687V410.246H640.117V414.999Z" fill="#222222"/>
<path d="M663.652 437.392C660.581 437.392 658.066 436.69 656.106 435.285C654.179 433.848 653.1 431.904 652.872 429.454H656.4C656.563 430.957 657.266 432.182 658.507 433.129C659.781 434.044 661.479 434.501 663.603 434.501C665.465 434.501 666.919 434.06 667.964 433.178C669.042 432.296 669.581 431.202 669.581 429.895C669.581 428.98 669.287 428.229 668.699 427.641C668.111 427.053 667.359 426.596 666.445 426.269C665.563 425.91 664.354 425.534 662.819 425.142C660.826 424.619 659.209 424.097 657.968 423.574C656.727 423.051 655.665 422.284 654.783 421.271C653.934 420.226 653.509 418.837 653.509 417.106C653.509 415.799 653.901 414.591 654.685 413.48C655.469 412.369 656.58 411.487 658.017 410.834C659.454 410.181 661.087 409.854 662.917 409.854C665.792 409.854 668.111 410.589 669.875 412.059C671.639 413.496 672.586 415.489 672.717 418.037H669.287C669.189 416.469 668.568 415.211 667.425 414.264C666.314 413.284 664.779 412.794 662.819 412.794C661.088 412.794 659.683 413.202 658.605 414.019C657.527 414.836 656.988 415.848 656.988 417.057C656.988 418.102 657.298 418.968 657.919 419.654C658.572 420.307 659.372 420.83 660.32 421.222C661.267 421.581 662.541 421.99 664.142 422.447C666.069 422.97 667.605 423.476 668.748 423.966C669.891 424.456 670.871 425.175 671.688 426.122C672.505 427.069 672.929 428.327 672.962 429.895C672.962 431.332 672.57 432.623 671.786 433.766C671.002 434.877 669.907 435.759 668.503 436.412C667.098 437.065 665.481 437.392 663.652 437.392Z" fill="#222222"/>
<path d="M703.624 422.251C703.624 423.427 703.592 424.325 703.526 424.946H681.329C681.427 426.971 681.917 428.703 682.799 430.14C683.681 431.577 684.841 432.672 686.278 433.423C687.716 434.142 689.284 434.501 690.982 434.501C693.204 434.501 695.066 433.962 696.568 432.884C698.104 431.806 699.116 430.352 699.606 428.523H703.232C702.579 431.136 701.174 433.276 699.018 434.942C696.895 436.575 694.216 437.392 690.982 437.392C688.467 437.392 686.213 436.837 684.22 435.726C682.228 434.583 680.66 432.982 679.516 430.924C678.406 428.833 677.85 426.4 677.85 423.623C677.85 420.846 678.406 418.413 679.516 416.322C680.627 414.231 682.179 412.631 684.171 411.52C686.164 410.409 688.434 409.854 690.982 409.854C693.53 409.854 695.752 410.409 697.646 411.52C699.574 412.631 701.044 414.133 702.056 416.028C703.102 417.89 703.624 419.964 703.624 422.251ZM700.145 422.153C700.178 420.16 699.77 418.462 698.92 417.057C698.104 415.652 696.977 414.591 695.539 413.872C694.102 413.153 692.534 412.794 690.835 412.794C688.287 412.794 686.115 413.611 684.318 415.244C682.522 416.877 681.525 419.18 681.329 422.153H700.145Z" fill="#222222"/>
</svg>
