<svg width="64" height="64" viewBox="0 0 64 64" fill="none" xmlns="http://www.w3.org/2000/svg">
<path d="M54.7 21.3L50.5 19.5L52.7 14.7L47.58 16.4C45.9492 14.8799 43.8093 14.0239 41.58 14C39.1947 14.0053 36.9086 14.9552 35.2219 16.6419C33.5352 18.3286 32.5853 20.6147 32.58 23V25C25.5 26.46 19.32 22.6 13.58 16C12.58 21.3333 13.58 25.3333 16.58 28L10 27C10.2542 29.1184 11.2447 31.0801 12.7984 32.5424C14.352 34.0047 16.3701 34.8745 18.5 35L13 37C15 41 18.64 41.62 23.5 42C19.5276 44.7094 14.8071 46.108 10 46C35.52 57.34 50.5 40.68 50.5 26V24.34L54.7 21.3Z" stroke="black" stroke-width="3" stroke-linecap="round" stroke-linejoin="round"/>
</svg>
