<svg width="64" height="64" viewBox="0 0 64 64" fill="none" xmlns="http://www.w3.org/2000/svg">
<path d="M9.5 54.5C10.225 53.1407 11.3058 52.0039 12.6268 51.2113C13.9478 50.4187 15.4594 50 17 50C18.5406 50 20.0522 50.4187 21.3732 51.2113C22.6942 52.0039 23.775 53.1407 24.5 54.5C25.225 53.1407 26.3058 52.0039 27.6268 51.2113C28.9478 50.4187 30.4594 50 32 50C33.5406 50 35.0522 50.4187 36.3732 51.2113C37.6942 52.0039 38.775 53.1407 39.5 54.5C40.225 53.1407 41.3058 52.0039 42.6268 51.2113C43.9478 50.4187 45.4594 50 47 50C48.5406 50 50.0522 50.4187 51.3732 51.2113C52.6942 52.0039 53.775 53.1407 54.5 54.5M21.5 32H12.5C11.7044 32 10.9413 31.6839 10.3787 31.1213C9.81607 30.5587 9.5 29.7956 9.5 29V12.5C9.5 11.7044 9.81607 10.9413 10.3787 10.3787C10.9413 9.81607 11.7044 9.5 12.5 9.5H21.5M38 9.5H51.5C52.2956 9.5 53.0587 9.81607 53.6213 10.3787C54.1839 10.9413 54.5 11.7044 54.5 12.5V29C54.5 29.7956 54.1839 30.5587 53.6213 31.1213C53.0587 31.6839 52.2956 32 51.5 32H38M11.75 43.25C11.75 43.9394 11.8858 44.6221 12.1496 45.2591C12.4135 45.896 12.8002 46.4748 13.2877 46.9623C13.7752 47.4498 14.354 47.8365 14.9909 48.1004C15.6279 48.3642 16.3106 48.5 17 48.5C17.6894 48.5 18.3721 48.3642 19.0091 48.1004C19.646 47.8365 20.2248 47.4498 20.7123 46.9623C21.1998 46.4748 21.5865 45.896 21.8504 45.2591C22.1142 44.6221 22.25 43.9394 22.25 43.25C22.25 42.5606 22.1142 41.8779 21.8504 41.2409C21.5865 40.604 21.1998 40.0252 20.7123 39.5377C20.2248 39.0502 19.646 38.6635 19.0091 38.3996C18.3721 38.1358 17.6894 38 17 38C16.3106 38 15.6279 38.1358 14.9909 38.3996C14.354 38.6635 13.7752 39.0502 13.2877 39.5377C12.8002 40.0252 12.4135 40.604 12.1496 41.2409C11.8858 41.8779 11.75 42.5606 11.75 43.25ZM26.75 43.25C26.75 44.6424 27.3031 45.9777 28.2877 46.9623C29.2723 47.9469 30.6076 48.5 32 48.5C33.3924 48.5 34.7277 47.9469 35.7123 46.9623C36.6969 45.9777 37.25 44.6424 37.25 43.25C37.25 41.8576 36.6969 40.5223 35.7123 39.5377C34.7277 38.5531 33.3924 38 32 38C30.6076 38 29.2723 38.5531 28.2877 39.5377C27.3031 40.5223 26.75 41.8576 26.75 43.25ZM41.75 43.25C41.75 44.6424 42.3031 45.9777 43.2877 46.9623C44.2723 47.9469 45.6076 48.5 47 48.5C48.3924 48.5 49.7277 47.9469 50.7123 46.9623C51.6969 45.9777 52.25 44.6424 52.25 43.25C52.25 41.8576 51.6969 40.5223 50.7123 39.5377C49.7277 38.5531 48.3924 38 47 38C45.6076 38 44.2723 38.5531 43.2877 39.5377C42.3031 40.5223 41.75 41.8576 41.75 43.25ZM27.5 14V29L39.5 21.5L27.5 14Z" stroke="black" stroke-width="3" stroke-linecap="round" stroke-linejoin="round"/>
</svg>
